<?xml version="1.0" encoding="UTF-8"?>
<!DOCTYPE svg PUBLIC "-//W3C//DTD SVG 1.1//EN" "http://www.w3.org/Graphics/SVG/1.1/DTD/svg11.dtd">
<!-- Creator: CorelDRAW 2018 (64 Bit Versão de avaliação) -->
<svg xmlns="http://www.w3.org/2000/svg" xml:space="preserve" width="237.479mm" height="188.04mm" version="1.1" style="shape-rendering:geometricPrecision; text-rendering:geometricPrecision; image-rendering:optimizeQuality; fill-rule:evenodd; clip-rule:evenodd"
viewBox="0 0 3647.07 2887.8"
 xmlns:xlink="http://www.w3.org/1999/xlink">
 <defs>
  <style type="text/css">
   <![CDATA[
    .str1 {stroke:#3F3D56;stroke-width:4.06;stroke-miterlimit:22.9256}
    .str0 {stroke:#565987;stroke-width:4.06;stroke-miterlimit:22.9256}
    .fil2 {fill:none}
    .fil8 {fill:#3F3D56}
    .fil7 {fill:#65617D}
    .fil5 {fill:#A8A8A8}
    .fil9 {fill:#BE6F72}
    .fil11 {fill:#E3E8F4}
    .fil10 {fill:#FBBEBE}
    .fil12 {fill:#FDAD06}
    .fil1 {fill:#FFC700}
    .fil4 {fill:#FFD037}
    .fil13 {fill:black;fill-opacity:0.011765}
    .fil3 {fill:black;fill-opacity:0.101961}
    .fil0 {fill:#6C63FF;fill-opacity:0.101961}
    .fil6 {fill:black;fill-opacity:0.200000}
   ]]>
  </style>
 </defs>
 <g id="Camada_x0020_1">
  <metadata id="CorelCorpID_0Corel-Layer"/>
  <g id="_2269561213424">
   <path class="fil0" d="M3647.07 1998.11c0,-7.11 -42.04,-12.88 -93.9,-12.88 -51.86,0 -93.9,5.77 -93.9,12.88 0,7.11 42.04,12.88 93.9,12.88 51.86,0 93.9,-5.77 93.9,-12.88z"/>
   <path class="fil0" d="M3287.34 2034.6c0,-7.11 -42.04,-12.88 -93.9,-12.88 -51.86,0 -93.9,5.77 -93.9,12.88 0,7.11 42.04,12.88 93.9,12.88 51.86,0 93.9,-5.77 93.9,-12.88z"/>
   <path class="fil0" d="M2863.62 1985.23c0,-7.11 -42.04,-12.88 -93.9,-12.88 -51.86,0 -93.9,5.77 -93.9,12.88 0,7.11 42.04,12.88 93.9,12.88 51.86,0 93.9,-5.77 93.9,-12.88z"/>
   <path class="fil0" d="M3404.16 2138.46c0,-5.07 -29.89,-9.18 -66.76,-9.18 -36.87,0 -66.76,4.11 -66.76,9.18 0,5.07 29.89,9.18 66.76,9.18 36.87,0 66.76,-4.11 66.76,-9.18z"/>
   <path class="fil0" d="M3030.82 2129.27c0,-5.07 -29.89,-9.18 -66.76,-9.18 -36.87,0 -66.76,4.11 -66.76,9.18 0,5.07 29.89,9.18 66.76,9.18 36.87,0 66.76,-4.11 66.76,-9.18z"/>
   <path class="fil1" d="M3191.41 2031.67c0,0 131.73,-431.77 -20.6,-604.7 -113.77,-129.38 -243.31,-113.77 -301.21,-97.88 -30.32,8.06 -55.6,29.08 -69.08,57.42 -20.32,43.68 -16.58,114.59 126.37,197.35 239.37,138.6 254.28,328.72 254.28,328.72l10.24 119.09z"/>
   <path class="fil2 str0" d="M2890.19 1390.32c0,0 388.29,121.41 301.21,641.35"/>
   <path class="fil2 str0" d="M3116.92 1433.84c0,0 -53.47,36.04 -36.57,90.16"/>
   <path class="fil2 str0" d="M2929.16 1465.9c0,0 32.51,-33.24 72.45,-14.91"/>
   <path class="fil2 str0" d="M3082.63 1633.1c0,0 57.37,-29.09 72.2,7.35"/>
   <path class="fil2 str0" d="M3224.64 1693.81c0,0 -43.11,-3.41 -43.88,17.19"/>
   <path class="fil1" d="M3196.73 2035.13c0,0 -154.41,-313.81 -196.62,-306.94 -20.32,3.25 -29.42,23.08 -33.6,42.95 -1.66,8.24 -2.5,16.63 -2.5,25.03 0,17.68 3.73,35.21 10.92,51.36 21.9,50.23 80.7,145.59 221.82,187.61z"/>
   <path class="fil2 str0" d="M3001.24 1787.75c0,0 161.92,234.78 193.21,245.1"/>
   <line class="fil2 str0" x1="2986.37" y1="1824.4" x2="3024.16" y2= "1824.4" />
   <line class="fil2 str0" x1="3031.64" y1="1910.3" x2="3090.88" y2= "1912.82" />
   <line class="fil2 str0" x1="3067.68" y1="1841.59" x2="3061.26" y2= "1872.43" />
   <line class="fil2 str0" x1="3130.66" y1="1935.49" x2="3129.52" y2= "1963.53" />
   <path class="fil1" d="M3192.18 2035.13c0,0 154.41,-313.81 196.62,-306.94 20.32,3.25 29.42,23.08 33.6,42.95 1.66,8.24 2.5,16.63 2.5,25.03 0,17.68 -3.73,35.21 -10.92,51.36 -21.9,50.23 -80.7,145.59 -221.82,187.61z"/>
   <path class="fil2 str0" d="M3387.66 1787.75c0,0 -161.92,234.78 -193.21,245.1"/>
   <line class="fil2 str0" x1="3402.54" y1="1824.4" x2="3364.75" y2= "1824.4" />
   <line class="fil2 str0" x1="3357.27" y1="1910.3" x2="3298.03" y2= "1912.82" />
   <line class="fil2 str0" x1="3321.23" y1="1841.59" x2="3327.65" y2= "1872.43" />
   <line class="fil2 str0" x1="3258.21" y1="1935.49" x2="3259.38" y2= "1963.53" />
   <path class="fil1" d="M2927.29 2108.43c-4.19,-3.44 -7.25,-8.05 -8.78,-13.25 -0.25,-0.97 -0.38,-1.97 -0.38,-2.97 0,-4.47 2.52,-8.56 6.51,-10.56 5.65,-2.15 11.66,1.75 16.25,5.73 4.59,3.98 9.79,8.41 15.77,7.6 -5,-4.55 -7.86,-11.01 -7.86,-17.77 0,-1.58 0.16,-3.16 0.47,-4.7 0.25,-1.68 0.95,-3.27 2.03,-4.59 3.13,-3.33 8.82,-1.87 12.56,0.73 11.91,8.41 15.24,24.58 15.32,39.13 0.29,-2.69 0.43,-5.42 0.43,-8.13 0,-2.71 -0.15,-5.44 -0.44,-8.13 -0.04,-0.47 -0.06,-0.95 -0.06,-1.42 0,-4.98 2.25,-9.7 6.12,-12.84 2.64,-1.44 5.6,-2.2 8.61,-2.2 0.2,0 0.41,0 0.61,0.01 0.89,-0.12 1.8,-0.19 2.7,-0.19 4.49,0 8.85,1.58 12.29,4.46 4.51,4.88 3.33,13.04 -0.61,18.41 -4.43,4.91 -9.67,9.04 -15.48,12.19 -4.45,2.63 -8.25,6.25 -11.09,10.56 -0.32,0.6 -0.59,1.23 -0.81,1.87l-33.56 0c-7.46,-3.7 -14.4,-8.39 -20.61,-13.94l0 0z"/>
   <path class="fil1" d="M3515.13 1982.02c-4.2,-3.42 -7.27,-8.04 -8.78,-13.25 -0.25,-0.96 -0.38,-1.96 -0.38,-2.95 0,-4.46 2.52,-8.54 6.51,-10.54 5.65,-2.15 11.66,1.75 16.25,5.69 4.59,3.94 9.83,8.45 15.81,7.6 -5.03,-4.54 -7.9,-11 -7.9,-17.77 0,-1.58 0.16,-3.15 0.47,-4.7 0.25,-1.68 0.97,-3.26 2.07,-4.55 3.13,-3.33 8.78,-1.91 12.51,0.73 11.91,8.37 15.24,24.38 15.32,39.13 0.3,-2.69 0.45,-5.42 0.45,-8.13 0,-2.71 -0.15,-5.44 -0.45,-8.13 -0.04,-0.47 -0.06,-0.94 -0.06,-1.42 0,-4.98 2.25,-9.7 6.12,-12.84 2.67,-1.42 5.65,-2.16 8.68,-2.16 0.18,0 0.37,0 0.55,0.01 0.98,-0.15 1.97,-0.23 2.96,-0.23 4.39,0 8.64,1.52 12.04,4.3 4.55,4.84 3.37,13 -0.61,18.37 -4.4,5 -9.65,9.22 -15.48,12.44 -4.45,2.63 -8.25,6.25 -11.09,10.56 -0.33,0.59 -0.61,1.22 -0.81,1.87l-33.56 0c-7.44,-3.73 -14.4,-8.46 -20.6,-14.02l0 -0z"/>
   <path class="fil1" d="M3319.2 2108.43c-4.19,-3.44 -7.25,-8.05 -8.78,-13.25 -0.25,-0.97 -0.38,-1.97 -0.38,-2.97 0,-4.47 2.52,-8.56 6.51,-10.56 5.65,-2.15 11.66,1.75 16.25,5.73 4.59,3.98 9.79,8.41 15.77,7.6 -5.02,-4.56 -7.89,-11.03 -7.89,-17.82 0,-1.56 0.16,-3.13 0.45,-4.65 0.28,-1.68 1,-3.27 2.07,-4.59 3.13,-3.33 8.82,-1.87 12.56,0.73 11.91,8.41 15.24,24.58 15.32,39.13 0.35,-2.99 0.54,-6.05 0.54,-9.07 0,-2.39 -0.12,-4.81 -0.34,-7.18 -0.04,-0.48 -0.06,-0.95 -0.06,-1.43 0,-4.98 2.25,-9.7 6.12,-12.84 2.64,-1.44 5.6,-2.2 8.61,-2.2 0.2,0 0.41,0 0.61,0.01 0.89,-0.12 1.8,-0.19 2.7,-0.19 4.49,0 8.85,1.58 12.29,4.46 4.51,4.88 3.33,13.04 -0.61,18.41 -4.43,4.91 -9.67,9.04 -15.48,12.19 -4.45,2.63 -8.25,6.25 -11.09,10.56 -0.32,0.6 -0.59,1.23 -0.81,1.87l-33.57 0c-7.52,-3.68 -14.54,-8.38 -20.8,-13.94l-0 0z"/>
   <path class="fil1" d="M2763.62 1852.93c0,0 -12.6,16.46 5.81,41.28 18.41,24.83 33.52,45.83 27.43,61.32 0,0 -27.75,-46.12 -50.34,-46.77 -22.59,-0.65 -7.76,-28.08 17.11,-55.83z"/>
   <path class="fil3" d="M2763.62 1852.93c-1.11,1.58 -1.99,3.32 -2.6,5.16 -22.02,25.88 -33.77,50.06 -12.6,50.67 19.75,0.57 43.44,35.84 49.09,44.7 0,0.69 -0.41,1.38 -0.65,2.03 0,0 -27.75,-46.12 -50.34,-46.77 -22.59,-0.65 -7.76,-28.04 17.11,-55.79z"/>
   <path class="fil4" d="M2740.22 1873.89c0,5.81 0.65,10.48 1.46,10.48 0.81,0 1.42,-4.67 1.42,-10.48 0,-5.81 -0.81,-3.05 -1.58,-3.05 -0.77,0 -1.3,-2.72 -1.3,3.05z"/>
   <path class="fil4" d="M2732.17 1880.8c5.08,2.8 9.55,4.47 9.91,3.78 0.37,-0.69 -3.41,-3.54 -8.49,-6.3 -5.08,-2.76 -3.09,-0.77 -3.49,0 -0.41,0.77 -3.01,-0.24 2.07,2.52z"/>
   <path class="fil1" d="M2830.05 1852.93c0,0 12.6,16.46 -5.81,41.28 -18.41,24.83 -33.52,45.83 -27.39,61.32 0,0 27.71,-46.12 50.3,-46.77 22.59,-0.65 7.76,-28.08 -17.11,-55.83z"/>
   <path class="fil3" d="M2830.05 1852.93c1.11,1.58 1.99,3.32 2.6,5.16 22.02,25.88 33.77,50.06 12.6,50.67 -19.75,0.57 -43.44,35.84 -49.09,44.7 0.19,0.69 0.42,1.37 0.69,2.03 0.27,0.66 27.71,-46.12 50.3,-46.77 22.59,-0.65 7.76,-28.03 -17.11,-55.79z"/>
   <path class="fil4" d="M2853.46 1873.89c0,5.81 -0.65,10.48 -1.46,10.48 -0.81,0 -1.42,-4.67 -1.42,-10.48 0,-5.81 0.81,-3.05 1.58,-3.05 0.77,0 1.3,-2.72 1.3,3.05z"/>
   <path class="fil4" d="M2861.51 1880.8c-5.08,2.8 -9.55,4.47 -9.91,3.78 -0.37,-0.69 3.41,-3.54 8.49,-6.3 5.08,-2.76 3.09,-0.77 3.49,0 0.41,0.77 3.01,-0.24 -2.07,2.52z"/>
   <path class="fil5" d="M2849.44 1953.37c0,0 -35.15,-1.06 -45.75,-8.61 -10.61,-7.56 -54.12,-16.58 -56.89,-4.47 -2.76,12.11 -52.82,60.22 -13.17,60.54 39.66,0.33 92.32,-6.18 102.88,-12.64 10.57,-6.46 12.92,-34.82 12.92,-34.82z"/>
   <path class="fil6" d="M2733.06 1996.61c39.7,0.33 92.28,-6.18 102.88,-12.64 8.13,-4.88 11.26,-22.51 12.19,-30.64l1.14 0c0,0 -2.19,28.44 -12.8,34.82 -10.6,6.38 -63.14,12.96 -102.88,12.64 -11.46,0 -15.4,-4.06 -15.2,-10.2 1.75,3.7 6.14,5.97 14.67,6.01z"/>
   <path class="fil0" d="M612.02 245.89c0,-48.54 -39.35,-87.89 -87.89,-87.89 -48.54,0 -87.89,39.35 -87.89,87.89 0,48.54 39.35,87.89 87.89,87.89 48.54,0 87.89,-39.35 87.89,-87.89z"/>
   <path class="fil0" d="M2132.14 107.17c0,-48.54 -39.35,-87.89 -87.89,-87.89 -48.54,0 -87.89,39.35 -87.89,87.89 0,48.54 39.35,87.89 87.89,87.89 48.54,0 87.89,-39.35 87.89,-87.89z"/>
   <path class="fil0" d="M3526.47 454.38c0,-48.54 -39.35,-87.89 -87.89,-87.89 -48.54,0 -87.89,39.35 -87.89,87.89 0,48.54 39.35,87.89 87.89,87.89 48.54,0 87.89,-39.35 87.89,-87.89z"/>
   <path class="fil0" d="M294.59 1051.76c0,-81.35 -65.95,-147.29 -147.29,-147.29 -81.35,0 -147.29,65.95 -147.29,147.29 0,81.35 65.95,147.29 147.29,147.29 81.35,0 147.29,-65.95 147.29,-147.29z"/>
   <path class="fil0" d="M435.79 1779.1c0,-81.35 -65.95,-147.29 -147.29,-147.29 -81.35,0 -147.29,65.95 -147.29,147.29 0,81.35 65.95,147.29 147.29,147.29 81.35,0 147.29,-65.95 147.29,-147.29z"/>
   <path class="fil0" d="M3194.45 1137.54c0,-81.35 -65.95,-147.29 -147.29,-147.29 -81.35,0 -147.29,65.95 -147.29,147.29 0,81.35 65.95,147.29 147.29,147.29 81.35,0 147.29,-65.95 147.29,-147.29z"/>
   <path class="fil7" d="M1829.14 1413.36c-5.2,0.49 -10.48,0.24 -15.64,1.06 -8.65,1.73 -16.94,5.06 -24.38,9.8 -36.98,21.05 -71.88,49.98 -87.2,89.64 -0.9,1.72 -1.37,3.64 -1.37,5.59 0,0.78 0.08,1.56 0.22,2.33 0.91,2.22 2.4,4.16 4.31,5.61l14.38 13.08c1.82,1.88 3.99,3.41 6.38,4.47 1.72,0.45 3.49,0.68 5.27,0.68 2.21,0 4.41,-0.35 6.51,-1.04 39.54,-9.06 81.55,-19.5 109.3,-49.09 13.17,-14.02 25.32,-33.32 44.7,-33.85 8.13,0 15.72,3.13 23.73,4.06 8.01,0.94 17.63,-2.48 19.54,-10.28 0.18,-1.12 0.27,-2.27 0.27,-3.41 0,-2.77 -0.54,-5.52 -1.57,-8.09l-11.95 -39.78c-3.25,-10.89 -36.04,-11.46 -46.97,-9.51 -16.66,2.88 -27.87,17.11 -45.55,18.73z"/>
   <path class="fil7" d="M1969.89 1637.45c-0.57,13.61 0.53,27.39 -1.71,40.88 -1.95,10.61 -5.38,20.97 -10.11,30.67 -7.28,15.61 -16.62,30.29 -27.64,43.52 -10.28,12.19 -22.59,23.65 -37.83,28.44 -15.24,4.79 -33.97,1.34 -43.48,-11.5 -7.76,-10.44 -8.13,-24.38 -7.56,-37.42 1.38,-32.06 6.42,-64.57 20.8,-93.25 6.18,-12.19 14.02,-23.81 20.32,-36.12 13.17,-25.56 20.68,-55.87 43.4,-73.51 14.23,6.58 29.5,10.77 45.11,12.39 6.05,0.65 23.36,1.06 25.39,8.82 1.38,5.24 -10,19.91 -12.19,25.07 -8.66,19.59 -13.62,40.62 -14.51,62.01l0.01 -0z"/>
   <path class="fil8" d="M1808.82 1051.44c4.88,12.43 11.05,24.62 12.19,37.87 0.81,8.13 0,16.25 0,24.38 0.67,11.09 2.56,22.18 5.53,32.91l22.62 92.65c3.37,13.86 6.74,28.08 5,42.22 -1.18,9.43 -4.59,18.57 -4.55,28.04 0.43,7.17 1.58,14.31 3.42,21.25 1.68,8.43 2.53,17.01 2.53,25.61 0,13.22 -2.01,26.39 -5.95,39 -0.5,1.19 -0.76,2.48 -0.76,3.77 0,0.41 0.03,0.82 0.08,1.22 0.57,2.64 3.13,4.27 5.44,5.53 24.32,13.33 50.93,22.19 78.41,26.13 24.77,-58.91 42.21,-121.09 51.59,-184.29 5.77,-38.36 8.57,-77.2 15.97,-115.28 0.19,-2.18 1.13,-4.25 2.67,-5.83 2.76,-2.32 6.95,-0.85 10.2,0.69 41.48,19.88 81.61,43.22 119.51,69.12 20.15,-26.16 31.12,-58.28 31.12,-91.28 0,-10.86 -1.18,-21.72 -3.54,-32.31 -4.75,-18.38 -11.62,-36.28 -20.31,-53.16 -9.28,-20.52 -20.93,-40.05 -34.57,-57.98 -30.15,-37.79 -74.36,-61.93 -119.87,-78.3 -27.67,-10 -56.15,-17.39 -84.6,-24.95 -15.93,-4.27 -42.62,-18.16 -58.1,-7.35 -16.25,11.26 -27.06,39.17 -33.72,56.89 -8.19,21.92 -12.7,45.2 -13.24,68.61 -0.01,1.68 -0.06,3.41 -0.06,5.09 0,23.84 4.43,47.53 13,69.76l-0.01 0.01z"/>
   <path class="fil8" d="M2135.47 1163.14c-8.49,9.27 -1.34,24.05 -2.97,36.57 -1.06,5.64 -3.09,11.09 -5.98,16.05l-38.89 76.35c-6.49,11.44 -11.36,23.77 -14.46,36.56 -5.32,27.55 5.61,58.51 -8.37,82.85 -4.51,7.84 -11.5,14.59 -13.37,23.44 -1.38,6.46 0,13.21 -0.69,19.75 -0.94,7.68 -5.04,14.59 -7.31,21.98 -1.77,7.09 -3.06,14.36 -3.79,21.62 -4.92,31.07 -21.22,59.23 -45.68,79 -13.11,11.11 -29.77,17.22 -46.97,17.22 -1.13,0 -2.29,-0.03 -3.42,-0.08 -18.12,-1.54 -36.12,-13.86 -39.82,-31.65 -1.26,-6.05 -1.02,-12.8 -4.79,-17.72 -5.36,-7.03 -16.66,-7.31 -21.82,-14.51l19.99 -32.91c6.22,-10.2 12.56,-20.84 13.57,-32.75 1.22,-14.59 -5.81,-29.13 -3.29,-43.56 2.15,-12.39 11.05,-22.71 13.73,-34.99 3.33,-15.24 -3.33,-30.64 -6.95,-45.83 -8.86,-37.42 1.06,-76.43 10.93,-113.77 13.12,-49.41 26.57,-99.59 53.15,-143.27 53.03,28.56 101.79,55.99 157.17,79.64z"/>
   <path class="fil1" d="M2135.96 389.16c3.17,8.61 1.46,18.16 0.85,27.31 -1.42,20.32 2.89,40.63 1.91,61.23 -0.98,20.6 -7.31,40.27 -11.7,60.3 -12.47,57.17 -9.47,116.74 -20.76,174.15 -13.94,71.11 -49.57,137.34 -56.6,209.5 -2.23,22.92 -1.95,47.46 -14.51,66.8 -74.54,-32.77 -145.23,-74.38 -210.15,-123.43 14.3,-106.09 28.44,-212.71 26.53,-319.74 -0.22,-3.26 -0.35,-6.57 -0.35,-9.83 0,-9.64 1.02,-19.29 3.03,-28.7 3.38,-10.61 8.27,-20.73 14.46,-29.99 15.72,-25.56 33.04,-50.1 50.3,-74.6 11.05,-15.68 23,-32.14 40.63,-39.5 17.63,-7.35 38.52,-4.06 57.74,-0.57 23.13,4.23 46.24,8.46 69.32,12.68 14.43,2.64 43.11,-2.4 49.29,14.38z"/>
   <path class="fil9" d="M1579.57 795.69c-9.45,-9.46 -19.83,-18.09 -30.87,-25.63 14.43,-17.55 11.58,-42.95 15.12,-65.42 2.87,-14.59 7.3,-28.87 13.12,-42.54 1.46,-3.86 3.54,-8.13 7.56,-9.14 0.54,-0.08 1.08,-0.11 1.63,-0.11 1.93,0 3.85,0.42 5.6,1.24 12.19,4.31 37.63,4.06 47.09,11.95 11.42,9.59 0.98,29.66 -3.33,41.65 -3.05,8.05 -49.86,94.11 -55.91,88.01z"/>
   <path class="fil7" d="M1614.96 1554.52c6.1,9.89 10.13,21 11.75,32.51 0.98,11.54 -3.25,24.18 -13.08,30.27 -9.83,6.09 -23.93,4.06 -35.64,0.41 -50.16,-16.32 -91.1,-53.29 -112.36,-101.58 -3.7,-8.53 -6.91,-17.59 -13.45,-24.18 -4.84,-4.27 -10.26,-7.9 -16.04,-10.77 -15.97,-9.02 -31.37,-20.89 -38.76,-37.71 -7.39,-16.82 -4.06,-39.29 11.26,-49.29 6.31,-3.64 13.48,-5.57 20.77,-5.57 3.74,0 7.48,0.51 11.08,1.51 10.59,3.01 20.73,7.42 30.15,13.12 15.77,8.57 35.03,15.97 48.76,27.39 12.19,10.04 23.12,23.61 33.52,35.43 11.85,13.58 23.1,27.88 33.45,42.66 3.33,4.36 31.41,41.86 28.6,45.81z"/>
   <path class="fil7" d="M1317.12 1469.23c-1.39,20.4 -4.99,40.74 -10.77,60.35 -3.29,11.05 -7.64,22.55 -16.78,29.58 -7.72,4.99 -16.5,8.21 -25.64,9.37 -2.08,0.57 -4.23,0.85 -6.38,0.85 -1.14,0 -2.29,-0.08 -3.41,-0.24 -5.61,-1.18 -9.59,-6.01 -13.04,-10.61 -13.57,-17.96 -26.78,-36.94 -32.51,-58.71 -8.13,-31.57 0,-65.42 14.1,-94.92 5.06,-11.87 12.48,-22.66 21.75,-31.65 11.45,-9.42 25.24,-15.61 39.9,-17.92 14.99,-3.01 33.4,-9.43 34.5,8.82 0.47,12.82 0.89,25.86 0.89,38.8 0,22.05 -0.93,44.3 -2.59,66.24l-0.01 0.04z"/>
   <path class="fil8" d="M1541.95 705.49c28.04,14.51 59.16,32.95 65.01,63.96 3.62,18.94 -3.33,38.32 -2.19,57.58 1.02,16.94 8.13,33.32 7.23,50.22 -0.92,7.98 -2.33,15.95 -4.06,23.77 -2.4,14.99 -0.98,30.27 -1.58,45.43 -1.34,34.13 -12.76,66.96 -18.28,100.65 -2.53,15.62 -3.83,31.49 -3.83,47.33 0,8.49 0.4,16.99 1.12,25.45 1.34,15.68 4.06,31.29 4.06,47.05 -0.02,0.01 -0.02,0.01 -0.02,0.01 0,11.35 -0.93,22.7 -2.79,33.87 -5.4,35.14 -16.46,69.35 -32.52,101.05 -19.54,38.48 -16.78,88.13 -14.71,131.24 0.25,1.63 0.37,3.27 0.37,4.91 0,4.35 -0.87,8.66 -2.56,12.66 -5.12,9.31 -17.88,10.65 -28.44,9.75 -39.15,-3.56 -75.53,-22 -101.58,-51.44 -3.8,-3.7 -6.39,-8.48 -7.4,-13.69 -0.89,-8.7 6.1,-15.85 11.13,-23.04 17.15,-24.38 12.8,-57.42 14.83,-87.36 1.47,-21.75 6.69,-43.17 15.39,-63.18 5.04,-11.58 11.34,-23 12.47,-35.6 1.06,-11.74 -2.52,-23.36 -6.05,-34.58l-12.19 -38.68c-18.89,-60.1 -37.91,-120.56 -66.52,-176.67 -18.75,12.19 -32.2,31.09 -37.58,52.82 -10.65,38.28 4.51,81.02 -10,117.84 -2.4,5.1 -4.41,10.4 -5.97,15.81 -0.68,3.76 -1.03,7.6 -1.03,11.43 0,0.92 0.02,1.85 0.06,2.76 0.23,39.49 2.91,79.39 7.28,118.58 0.17,5.91 1.85,11.73 4.83,16.89 2.4,3.45 5.89,6.01 8.45,9.31 7.11,9.22 5.77,22.15 4.06,33.64l-8.13 54.37c-0.14,2.75 -1.06,5.42 -2.64,7.68 -1.91,1.86 -4.31,3.15 -6.91,3.74 -18.48,5.75 -37.77,8.66 -57.12,8.66 -7.59,0 -15.24,-0.45 -22.76,-1.34 -7.92,-0.94 -15.12,-6.26 -21.74,-10.73 -0.69,-8.13 9.43,-13.53 9.79,-21.62 -0.4,-4.8 -2.63,-9.26 -6.22,-12.44 -15.12,-17.07 -33.16,-35.19 -32.99,-57.98 0,-5.97 1.42,-11.95 1.22,-17.92 -0.53,-15.32 -11.09,-28.44 -14.79,-43.19 -4.55,-18.24 1.5,-37.18 3.82,-55.83 3.17,-25.11 -0.57,-50.55 -4.06,-75.62l-13.61 -91.99c-1.57,-14.25 -4.43,-28.42 -8.46,-42.17 -5.08,-13.51 -11.16,-26.86 -17.98,-39.6 -13,-26.41 -23.69,-53.88 -34.33,-81.27 -3.39,-7.42 -5.54,-15.39 -6.31,-23.51 -0.61,-13.94 6.58,-27.1 15.52,-37.83 16.73,-19.92 39.61,-33.79 65.02,-39.41 2.48,-0.7 5.06,-1.05 7.64,-1.05 1.81,0 3.62,0.17 5.4,0.52 3.64,1.21 7.07,3.01 10.12,5.33 39.51,25.85 85.8,39.65 133.05,39.65 27.86,0 55.55,-4.84 81.78,-14.18 4.06,3.09 11.58,1.75 16.25,-0.45 13.04,-5.97 23.69,-15.93 35.15,-24.38 21.33,-16.16 50.09,-31.52 76.3,-37.17z"/>
   <path class="fil8" d="M699.74 1748.99c2.16,6.22 5.41,12.02 9.59,17.11 14.71,19.18 35.23,34.5 44.7,56.89 1.99,4.79 3.45,9.83 5.28,14.71 5.55,14.7 14.64,27.87 26.41,38.28 8.96,7.45 18.78,13.94 29.14,19.3 17.96,9.79 37.38,18.65 57.78,18.12 4.08,-0.08 8.18,-0.58 12.18,-1.46 6.35,-1.31 12.48,-3.56 18.17,-6.66 13.12,-7.23 24.38,-21.37 21.78,-36.12 -0.53,-2.81 -1.42,-5.55 -2.64,-8.13 -2.15,-4.11 -4.66,-8.04 -7.44,-11.74 -6.87,-9.51 -13.94,-19.26 -23.97,-25.36 -11.3,-6.91 -25.52,-8.61 -35.68,-17.15 -3.99,-3.62 -7.47,-7.82 -10.28,-12.43 -9.21,-14.14 -16.08,-29.72 -20.31,-46.05 -3.09,-12.19 -5.16,-25.56 -14.06,-34.5 -8.9,-8.94 -21.13,-10.97 -32.99,-13 -3.81,-0.77 -7.7,-1.17 -11.59,-1.17 -0.2,0 -0.41,0 -0.61,0 -5.81,0.2 -11.82,1.87 -17.27,-0.85 -5.45,-2.72 -7.27,-6.58 -13.86,-6.05 -5.24,0.71 -10.18,2.87 -14.26,6.22 -15.44,11.42 -25.68,31.74 -20.08,50.06z"/>
   <path class="fil10" d="M844.11 1767.48c2.64,13.77 6.71,28.44 17.35,37.42 6.79,5.85 16.25,9.51 19.63,17.76 3.37,8.25 -0.98,18.61 -6.58,26.17 -7.14,9.54 -16.04,17.71 -26.16,24.01 -8.61,5.32 -18.89,9.39 -28.77,7.03 -8.13,-1.91 -14.55,-7.76 -20.6,-13.41 -13.9,-12.88 -28.12,-26.25 -35.92,-43.52 -8.13,-18.2 -8.53,-39.29 -17.39,-57.21 -5.16,-10.44 -13.12,-19.59 -16.25,-30.8 -0.7,-2.01 -1.06,-4.13 -1.06,-6.26 0,-2.13 0.36,-4.25 1.05,-6.26 3.04,-5.82 9.06,-9.47 15.63,-9.47 0.1,0 0.2,0 0.3,0 6.54,0.22 13,1.6 19.06,4.07 18.31,6.48 37.11,11.81 56.17,15.71 7.6,1.42 12.19,1.38 16.25,8.74 3.77,8.24 6.24,17.04 7.3,26.02l-0 0z"/>
   <path class="fil10" d="M891.25 1883.93c-3,4.6 -5.15,9.74 -6.29,15.11 -0.57,2.47 -0.85,5 -0.85,7.54 0,1.74 0.14,3.5 0.4,5.22 6.35,-1.32 12.48,-3.56 18.17,-6.66 13.12,-7.23 24.38,-21.37 21.78,-36.12 -0.53,-2.81 -1.42,-5.55 -2.64,-8.13 -0.81,-0.18 -1.64,-0.27 -2.48,-0.27 -3.16,0 -6.19,1.32 -8.33,3.65 -7.55,5.48 -14.23,12.14 -19.75,19.67l-0 0z"/>
   <path class="fil8" d="M745.62 1575.2c-1.22,2.64 -1.86,5.51 -1.86,8.42 0,1.26 0.12,2.53 0.36,3.77 1.87,8.13 10.2,12.8 17.72,16.5l71.47 34.94c4.93,2.28 9.81,4.88 14.47,7.67 12.19,7.48 21.78,18.04 32.18,27.71 10.4,9.67 21.98,18.73 35.76,22.15 4.24,0.94 8.59,1.41 12.93,1.41 9.63,0 19.14,-2.31 27.7,-6.72 6.74,-3.35 13.01,-7.63 18.61,-12.64 4.86,-4.24 9.36,-8.93 13.42,-13.93 3.48,-3.69 5.99,-8.21 7.26,-13.13 1.34,-7.44 -2.36,-14.75 -6.66,-20.89 -2.47,-3.52 -5.2,-6.92 -8.12,-10.07 -27.1,-29.95 -71.51,-45.47 -109.71,-51.56 -15.2,-2.44 -29.62,-8.13 -44.25,-12.76 -14.63,-4.63 -30.11,-8.13 -45.31,-5.97 -15.2,2.15 -30.16,10.89 -35.97,25.11z"/>
   <path class="fil3" d="M745.62 1575.2c-1.22,2.64 -1.86,5.51 -1.86,8.42 0,1.26 0.12,2.53 0.36,3.77 1.87,8.13 10.2,12.8 17.72,16.5l71.47 34.94c4.93,2.28 9.81,4.88 14.47,7.67 12.19,7.48 21.78,18.04 32.18,27.71 10.4,9.67 21.98,18.73 35.76,22.15 4.24,0.94 8.59,1.41 12.93,1.41 9.63,0 19.14,-2.31 27.7,-6.72 6.74,-3.35 13.01,-7.63 18.61,-12.64 4.86,-4.24 9.36,-8.93 13.42,-13.93 3.48,-3.69 5.99,-8.21 7.26,-13.13 1.34,-7.44 -2.36,-14.75 -6.66,-20.89 -2.47,-3.52 -5.2,-6.92 -8.12,-10.07 -27.1,-29.95 -71.51,-45.47 -109.71,-51.56 -15.2,-2.44 -29.62,-8.13 -44.25,-12.76 -14.63,-4.63 -30.11,-8.13 -45.31,-5.97 -15.2,2.15 -30.16,10.89 -35.97,25.11z"/>
   <path class="fil10" d="M924.48 1597.51c5.49,6.16 10.03,13.16 13.41,20.68 2.26,3.66 3.46,7.88 3.46,12.18 0,1.46 -0.14,2.92 -0.41,4.36 -1.6,3.83 -4.16,7.2 -7.44,9.75l-7.11 6.58c-2.15,2.23 -4.65,4.1 -7.4,5.53 -3.32,1.24 -6.84,1.88 -10.38,1.88 -0.6,0 -1.21,-0.02 -1.8,-0.05 -9.55,0 -19.83,0 -27.59,-5.73 -10.61,-7.64 -12.51,-23.44 -7.68,-35.6 4.83,-12.15 14.95,-21.33 25.15,-29.54 8.28,-6.7 21.98,3.82 27.79,9.96z"/>
   <path class="fil10" d="M967.88 1639.52c-0.43,2.28 -0.66,4.6 -0.66,6.92 0,4.52 0.85,8.99 2.5,13.2 1.79,6.1 3.54,12.19 5.28,18.41 0,0 0,0 0,0.24 4.85,-4.24 9.35,-8.93 13.41,-13.94 3.48,-3.69 5.99,-8.21 7.26,-13.13 1.34,-7.44 -2.36,-14.75 -6.66,-20.89 -2.47,-3.51 -5.2,-6.92 -8.12,-10.07 -1.91,2.48 -3.58,4.92 -4.96,6.5 -3.56,3.63 -6.31,7.99 -8.05,12.76l-0 0z"/>
   <path class="fil8" d="M781.17 1336.68c-8.41,35.35 -4.84,72.33 -0.37,108.41 3.41,27.47 7.23,55.91 -0.89,82.36 -3.01,9.87 -7.76,19.91 -5.93,30.11 3.45,19.22 26.61,26.61 45.79,30.23 3.63,0.92 7.38,1.39 11.13,1.39 1.95,0 3.89,-0.13 5.82,-0.37 5.67,-1.54 10.95,-4.33 15.44,-8.13 27.23,-19.81 47.99,-47.36 59.44,-79.03 7.27,-21.21 9.59,-43.76 11.82,-66.07 3.74,-37.55 7.52,-75.54 2.03,-112.84 -1.62,-10.97 -4.06,-21.82 -5.08,-32.87 -0.35,-5.21 -0.52,-10.52 -0.52,-15.77 0,-13.98 1.25,-27.99 3.68,-41.73 6.88,-46.82 17.63,-93.47 31.68,-138.76 -8.1,1.13 -16.36,1.67 -24.57,1.67 -30.62,0 -60.86,-7.58 -87.88,-21.95 6.66,3.58 -0.98,60.58 -1.79,68.59 -2.42,23.84 -6.79,47.54 -12.87,70.73 -11.34,43.34 -36.66,80.97 -46.94,124.04z"/>
   <path class="fil3" d="M781.17 1336.68c-8.41,35.35 -4.84,72.33 -0.37,108.41 3.41,27.47 7.23,55.91 -0.89,82.36 -3.01,9.87 -7.76,19.91 -5.93,30.11 3.45,19.22 26.61,26.61 45.79,30.23 3.63,0.92 7.38,1.39 11.13,1.39 1.95,0 3.89,-0.13 5.82,-0.37 5.67,-1.54 10.95,-4.33 15.44,-8.13 27.23,-19.81 47.99,-47.36 59.44,-79.03 7.27,-21.21 9.59,-43.76 11.82,-66.07 3.74,-37.55 7.52,-75.54 2.03,-112.84 -1.62,-10.97 -4.06,-21.82 -5.08,-32.87 -0.35,-5.21 -0.52,-10.52 -0.52,-15.77 0,-13.98 1.25,-27.99 3.68,-41.73 6.88,-46.82 17.63,-93.47 31.68,-138.76 -8.1,1.13 -16.36,1.67 -24.57,1.67 -30.62,0 -60.86,-7.58 -87.88,-21.95 6.66,3.58 -0.98,60.58 -1.79,68.59 -2.42,23.84 -6.79,47.54 -12.87,70.73 -11.34,43.34 -36.66,80.97 -46.94,124.04z"/>
   <path class="fil8" d="M992.14 1129.53c16.25,47.09 12.68,98.53 5.65,147.86 -7.03,49.33 -17.39,98.66 -14.34,148.35 1.18,19.5 4.35,39.54 -1.34,58.19 -3.15,9.08 -7.35,17.82 -12.47,25.96l-129.66 224.21c-6.71,11.82 -18.94,19.47 -32.51,20.32 -13.86,0.98 -27.47,-3.58 -40.39,-8.66 -8.58,-2.84 -16.57,-7.27 -23.52,-13.04 -6.34,-5.29 -10.02,-13.13 -10.02,-21.39 0,-0.81 0.04,-1.62 0.11,-2.42 5.81,-38.93 14.55,-78.79 21.01,-117.84 4.37,-26.47 14.01,-51.89 28.21,-74.66 10.04,-16.25 22.39,-30.84 31.04,-47.74 24.87,-48.43 16.25,-107.52 -2.93,-158.47 -19.18,-50.95 -47.74,-98.25 -62.98,-150.34 -4.51,-14.46 -7.12,-29.53 -7.69,-44.68 0.01,-0.45 -0.01,-0.96 -0.01,-1.43 0,-31.14 12.21,-61.08 33.97,-83.33 3.2,-3.63 7.23,-6.42 11.75,-8.13 2.44,-0.56 4.94,-0.85 7.44,-0.85 2.89,0 5.78,0.39 8.57,1.14 72.2,14.02 166.27,37.38 190.12,106.94z"/>
   <path class="fil10" d="M2157.62 426.46c2.36,17.8 -4.06,35.8 -13.21,51.2 -34.58,57.7 -114.3,83.22 -175.94,56.36 -25.39,-11.09 -46.89,-29.38 -67.94,-47.42 -7.07,-6.1 -14.43,-12.47 -18,-21.09 -6.3,-15.24 1.3,-33.4 13.69,-44.29 12.39,-10.89 28.44,-16.25 44.41,-21.09 52.7,-16.42 204.43,-68.18 216.98,26.33z"/>
   <path class="fil8" d="M2126.78 369.98c47.99,38.6 117.84,75.37 172.2,103.98 18.49,9.75 39.01,20.72 45.67,40.63 3.58,10.65 2.4,22.23 1.22,33.44 -2.28,21.58 -4.63,43.48 -12.96,63.51 -9.79,23.44 -27.1,42.79 -41,64.08 -24.38,37.3 -38.68,81.27 -68.79,114.22 20.32,67.49 42.54,134.9 49.77,204.95 0.13,0.63 0.2,1.27 0.2,1.92 0,1.31 -0.27,2.61 -0.81,3.81 -0.83,1.18 -1.92,2.17 -3.17,2.89l-50.55 33.16c-5.5,3.21 -10.45,7.34 -14.59,12.19 -8.94,11.62 -7.76,27.96 -13.29,41.49 -6.12,13.33 -17.42,23.62 -31.29,28.44 -10.09,3.47 -20.71,5.26 -31.39,5.26 -3.88,0 -7.8,-0.25 -11.64,-0.71 -18.45,-1.16 -36.25,-7.44 -51.36,-18.09 -12.88,-9.75 -22.06,-23.44 -30.92,-36.94 -6.54,-9.17 -12.04,-19.16 -16.25,-29.62 -5.4,-14.95 -5.73,-31.25 -5.53,-47.17 0.11,-30.24 3.03,-60.62 8.64,-90.34 2.36,-11.82 5.28,-23.49 7.15,-35.39 3.74,-23.97 3.01,-48.43 5.77,-72.53 3.75,-27.02 9.88,-53.88 18.1,-79.91 4.46,-16.1 8.08,-32.61 10.55,-49.18 4.75,-29.17 14.22,-57.33 23.69,-85.33l16.25 -47.99c3.45,-10.36 6.95,-20.68 11.05,-30.8 7.64,-18.89 17.47,-37.3 20.07,-57.46 2.89,-21.98 -20.84,-48.07 -12.84,-68.71 0.66,-2.27 4.2,-5.27 6.03,-3.81z"/>
   <path class="fil8" d="M2331.65 503.26c11.26,5.08 17.47,17.19 21.49,28.89 5.88,17.12 8.9,35.13 8.9,53.24 0,9.66 -0.86,19.33 -2.56,28.83 -1.58,6.88 -2.68,13.95 -3.25,20.98 0.06,8.17 0.9,16.36 2.4,24.38 4.06,31.08 0,62.66 1.34,94.03 1.38,35.27 9.06,72.53 -5.73,104.59 -9.83,21.29 -28.44,37.14 -46.81,51.52 -68.29,53.22 -143.88,96.9 -224.16,129.38 13.86,-16.66 14.1,-41.73 4.88,-61.36 -9.22,-19.63 -26.37,-34.38 -44.7,-45.83 23.26,-5.17 45.94,-13.29 67.24,-24.02 42.58,-21.62 79.07,-53.27 115.11,-84.6 5.3,-3.82 9.44,-9.07 11.93,-15.12 3.66,-12.19 -6.42,-23.77 -13.41,-34.46 -21.17,-32.51 -16.25,-74.97 -7.39,-112.59 9.87,-41.24 24.38,-82.32 50.83,-115.48 16.5,-20.72 38.03,-36.65 63.88,-42.38z"/>
   <path class="fil10" d="M2079.68 1040.1c-3.65,5.95 -8.4,11.17 -13.97,15.36 -12.19,8.13 -28.93,5.04 -42.54,-0.73 -12.64,-5.35 -24.34,-12.82 -34.54,-21.99 -4.39,-4.66 -9.59,-8.52 -15.33,-11.38 -10.65,-4.06 -25.52,-1.02 -31.49,-10.81 -0.64,-0.94 -0.98,-2.06 -0.98,-3.21 0,-0.1 0,-0.19 0.01,-0.29 0.37,-3.54 5,-4.51 8.57,-4.71 16.57,-1.09 32.71,-6.07 47.01,-14.5 -4.57,-3.3 -8.49,-7.45 -11.54,-12.2 -1.26,-1.66 -1.95,-3.68 -1.95,-5.77 0,0 0,0 0,0 0.5,-2.26 1.74,-4.3 3.54,-5.77 16.77,-15.84 39,-24.67 62.08,-24.67 12.89,0 25.66,2.77 37.39,8.09 3.19,1.29 6,3.39 8.13,6.09 1.5,2.49 2.51,5.26 2.97,8.13 2.64,11.38 12.19,28.44 8.74,39.94 -3.82,13.2 -18.24,27.22 -26.09,38.4z"/>
   <path class="fil8" d="M1802.61 988.86c50.55,-58.39 73.14,-135.23 94.11,-209.55l14.99 -52.82 36.16 -127.22c5.32,-18.77 10.65,-37.55 14.18,-56.68 6.05,-33.04 6.62,-66.8 6.26,-100.36 -0.51,-13.91 -3.71,-27.61 -9.38,-40.31 -3.54,-8.78 -5.24,-18.12 -8.13,-27.18 -3.66,-12.61 -9.17,-24.66 -16.29,-35.7 -1.99,-3.29 -4.48,-6.25 -7.36,-8.78 -4.99,-3.4 -10.67,-5.7 -16.62,-6.75 -12.9,-3.82 -26.33,-5.89 -39.78,-6.05 -13.49,0.49 -27.39,5.16 -36.08,15.4 -6.62,7.84 -9.67,18 -14.91,26.82 -2.42,3.59 -4.66,7.37 -6.62,11.25 -2.23,5.89 -3.47,12.14 -3.65,18.44 -2.12,25.6 -3.92,51.23 -5.41,76.88 -0.69,11.66 -1.3,23.4 -0.85,35.11 0.37,9.1 1.34,18.16 2.32,27.22l9.63 88.74c2.23,20.84 0.65,40.35 2.52,61.23 4.55,50.43 -6.3,100.85 -17.43,150.34 -5.32,23.53 -10.81,47.38 -22.19,68.67 -10.04,18.85 -25.07,37.99 -21.09,59 1.38,7.31 5.08,14.14 5.65,21.54 -0.05,0.86 -0.08,1.75 -0.08,2.62 0,3.71 0.48,7.41 1.42,10.99 2.85,5.2 8.31,8.43 14.24,8.43 1.04,0 2.08,-0.1 3.11,-0.3 8.04,-1.41 15.48,-5.24 21.29,-10.97l-0 0z"/>
   <path class="fil10" d="M1808.78 755.18c1.54,11.66 0.37,23.49 0.94,35.23 1.25,15.11 4.01,30.11 8.12,44.7 4.06,16.25 9.27,34.46 23.61,43.48 3.59,1.86 7.05,4.03 10.28,6.46 2.4,1.89 3.81,4.79 3.81,7.85 0,1.03 -0.16,2.06 -0.47,3.04l-11.17 -1.87c2.8,2.15 4.45,5.48 4.45,9.01 0,6.26 -5.08,11.34 -11.34,11.34 -3.37,0 -6.57,-1.5 -8.72,-4.09 0.12,1 0.18,2.03 0.18,3.04 0,2.66 -0.4,5.31 -1.19,7.85 -1.16,3.54 -4.4,5.97 -8.13,6.1 -2.1,-0.33 -4.1,-1.16 -5.81,-2.44l-29.17 -18.08c-8.74,-4.7 -16.02,-11.74 -21.01,-20.32l-12.76 -19.22c-2.81,-3.7 -5.04,-7.83 -6.62,-12.19 -4.75,-16.25 8.53,-34.29 1.62,-49.61 -2.07,-3.76 -4.52,-7.35 -7.27,-10.64 -14.75,-20.32 -13.82,-47.95 -12.19,-73.14 0.53,-8.49 2.07,-18.57 9.75,-22.27 6.1,-2.97 13.41,-0.33 19.06,3.37 5.65,3.7 10.65,8.57 17.07,10.77 4.06,1.38 8.53,1.54 12.6,3.01 5.69,1.99 10.97,9.75 14.79,14.34 5.4,7.04 8.72,15.47 9.59,24.3l-0 0z"/>
   <path class="fil9" d="M1452.71 390.01c-3.44,7.91 -8.3,15.17 -14.3,21.37 -5.21,5.36 -12.37,8.38 -19.84,8.38 -1.25,0 -2.5,-0.09 -3.73,-0.25 -9.02,-1.79 -15.64,-9.22 -21.62,-16.25 -15.6,-18.33 -31.41,-36.89 -41.89,-58.59 -16.01,-33.04 -18.57,-70.74 -20.89,-107.35 -0.57,-9.43 -1.06,-19.42 3.45,-27.67 5.73,-10.52 17.88,-15.48 29.09,-19.67l61.97 -23.16c3.21,-1.52 6.73,-2.31 10.28,-2.31 0.64,0 1.28,0.03 1.91,0.08 9.71,1.62 13.29,13.33 15.93,22.79 4.72,16.98 12.6,33.02 23.16,47.14 13.9,18.53 45.06,43.48 27.27,66.6 -21.5,27.7 -35.15,57.61 -50.79,88.9z"/>
   <path class="fil11" d="M1531.99 284.29c27.14,25.52 36.33,65.26 35.03,102.44 -1.3,37.18 -11.62,73.42 -17.51,110.16 -5.89,36.73 -7.07,75.94 8.9,109.71 5.49,11.58 12.96,22.31 16.78,34.54 2.4,9.04 3.62,18.38 3.62,27.75 0,3.11 -0.15,6.24 -0.41,9.34 -0.06,13.13 -2.58,26.16 -7.39,38.36 -8.66,19.18 -26.45,32.51 -43.48,44.7 -34.74,25.11 -70.17,50.63 -110.97,63.75 -27.63,8.9 -56.89,11.82 -85.82,13.41 -7.19,0.56 -14.45,0.86 -21.68,0.86 -12.4,0 -24.79,-0.87 -37.06,-2.53 -34.03,-5.66 -65.38,-22.25 -89.2,-47.21 -4.14,-4.02 -7.58,-8.75 -10.11,-13.94 -2.34,-6.38 -3.55,-13.15 -3.55,-19.95 0,-0.39 0.01,-0.79 0.01,-1.17 -0.98,-26.68 -0.82,-53.37 0.48,-80.05 0.75,-25.38 4.28,-50.73 10.46,-75.38 7.76,-28.44 21.21,-55.1 31.41,-82.81 35.51,-96.34 31.94,-205.97 81.27,-295.93 10.65,-19.42 28.44,-39.86 50.38,-36.77 4.2,0.26 8.18,2.09 11.12,5.13 2.52,3.69 3.93,8.04 4.06,12.51 5.24,43.72 12.68,88.58 33.28,128.03 8.13,15.48 20.32,39.05 39.05,43.19 18.73,4.14 29.78,-13.73 39.82,-26.41 17.61,-23.22 38.36,-44.01 61.52,-61.7l0 -0.02z"/>
   <path class="fil8" d="M1661.89 218.5c5.53,2.98 10.72,6.62 15.41,10.8 12.19,11.54 16.66,29.22 16.58,45.96 -0.08,16.74 -4.06,33.24 -6.5,49.82 -6.54,44.7 -0.98,90.45 1.62,135.71 0.24,2.36 0.38,4.72 0.38,7.09 0,4.97 -0.57,9.93 -1.68,14.78 -1.99,6.83 -6.1,12.84 -8.74,19.46 -7.76,19.59 -1.91,41.93 -6.46,62.49 -4.88,21.9 -21.58,41.81 -18.45,64.04 1.26,8.7 5.44,16.7 7.23,25.32 1.79,8.62 0.24,19.02 -7.19,23.65 -7.44,4.63 -18.24,1.26 -27.1,3.82 -3.59,1.33 -7.11,2.91 -10.48,4.71 -13.69,6.18 -30.03,4.06 -43.52,-2.68 -13.2,-7.19 -25.12,-16.64 -35.15,-27.87 -15.48,-15.85 -30.48,-33.2 -37.26,-54.29 -9.91,-30.56 -1.1,-63.83 9.67,-94.15 10.77,-30.31 23.61,-60.95 21.7,-93.17 -1.06,-18.04 -6.74,-35.39 -10.16,-53.11 -3.22,-19.02 -4.92,-38.34 -4.92,-57.63 0,-5.56 0.17,-11.24 0.41,-16.75 0.53,-18.2 1.75,-36.98 9.59,-53.43 11.35,-22.28 33.28,-37.3 58.19,-39.8 28.44,-3.09 52.82,11.42 76.84,25.24z"/>
   <path class="fil3" d="M1585.06 611.26c0.27,12.98 2.63,25.91 6.92,38.16 7.27,-16.58 8.13,-35.19 9.1,-53.23 4.06,-62.13 17.84,-120.72 32.51,-180.9 -10.69,8.13 -16.7,28.44 -21.82,40.63 -17.91,43.34 -27.18,89.93 -27.18,136.86 0,6.12 0.18,12.38 0.48,18.46l-0 0.01z"/>
   <path class="fil8" d="M1311.15 178.35c-19.59,5.16 -36.57,16.78 -55.55,24.38 -19.71,8.13 -40.92,11.58 -61.6,16.58 -47.87,11.62 -95.93,33.2 -124.82,73.14 -21.29,29.38 -30.11,65.66 -44.7,98.94 -12.19,27.92 -28.44,54.08 -37.42,83.14 -11.74,37.91 -10.4,78.54 -7.52,118.12 2.36,32.51 5.93,65.38 20.68,94.19 7.72,15.12 18.37,28.65 26.09,43.76 9.27,18.16 14.14,38.2 21.86,56.89 7.72,18.69 19.06,37.38 36.98,47.13l29.66 -17.35c44.25,-25.88 88.5,-51.81 131.37,-79.93 37.38,-24.38 75.09,-52.38 95,-92.44 17.63,-35.39 19.38,-76.76 14.83,-116.05 -4.55,-39.29 -14.95,-77.73 -20.32,-116.9 -2.9,-21.41 -4.46,-43.01 -4.46,-64.63 0,-28.05 2.59,-56.15 7.53,-83.74 4.06,-22.1 14.87,-44.94 17.11,-66.96 2.45,-23.51 -27.78,-22.74 -44.72,-18.27z"/>
   <path class="fil10" d="M1127.77 824.3c22.71,21.49 55.38,27.75 83.79,40.63 21.1,9.8 40.12,23.61 55.95,40.63 8.74,9.59 17.19,22.63 12.8,34.82 -3.7,10.48 -15.03,15.85 -25.44,19.75 -12.92,4.88 -27.35,9.18 -40.23,4.27 -7.56,-2.89 -13.65,-8.66 -20.6,-12.76 -17.03,-10.12 -38.48,-10.16 -55.95,-19.5 -24.62,-13.17 -36.89,-42.14 -60.06,-57.78 -12.68,-8.53 -30.19,-15.52 -31.49,-30.76 0,-0.13 0,-0.27 0,-0.4 0,-5.37 1.17,-10.68 3.41,-15.56 4.67,-12.43 12.64,-55.14 30.43,-54 19.38,1.26 32.95,40.39 47.38,50.67z"/>
   <path class="fil10" d="M1008.76 633.85c7.44,26.74 24.71,49.53 42.62,70.74 12.88,15.24 27.02,31.82 27.47,51.77 0.41,18.85 -12.19,36.2 -28.44,45.83 -16.25,9.63 -35.39,12.72 -54.2,13.94 -4.34,0.41 -8.73,0.63 -13.1,0.63 -10.72,0 -21.42,-1.27 -31.83,-3.76 -37.14,-10.08 -62.9,-42.46 -92.12,-67.49 -17.35,-14.83 -36.85,-27.75 -50.14,-46.32 -13.29,-18.57 -18.89,-45.22 -5.81,-63.96 4.71,-6.06 10.19,-11.54 16.25,-16.25 22.16,-19.2 41.13,-41.98 56.02,-67.25 6.01,-10.2 11.78,-21.25 21.9,-27.39 14.51,-8.82 33.12,-4.79 49.53,-0.49 17.84,4.67 68.1,13.82 71.6,36.57 1.42,9.34 -10.16,23.89 -11.91,33.93 -0.83,4.94 -1.25,9.96 -1.25,14.98 0,8.29 1.15,16.56 3.41,24.52l-0.01 -0z"/>
   <path class="fil1" d="M1100.63 684.81c5.31,9.62 9.71,19.82 13.08,30.28 12.39,43.07 -9.75,87.44 -20.32,131 -13.49,55.79 -7.76,114.14 -8.41,171.55 -0.28,26.25 -3.09,55.14 -21.98,73.34 -4.88,4.63 -10.73,8.53 -14.02,14.38 -2.02,4.28 -3.55,8.81 -4.51,13.45 -8.53,29.69 -35.72,50.17 -66.62,50.17 -11.84,0 -23.48,-3.04 -33.82,-8.81 -15.4,-8.57 -28.77,-23.44 -46.4,-23.89 -5.52,0.27 -11.09,0.89 -16.54,1.83 -17.55,1.75 -34.74,-4.75 -51.2,-11.13 -3.92,-1.24 -7.59,-3.2 -10.8,-5.77 -2.97,-2.72 -4.88,-6.38 -7.6,-9.31 -10.04,-10.81 -27.18,-8.94 -41.65,-11.95 -22.03,-4.93 -39.24,-22.14 -44.17,-44.17 -2.93,-13.98 -0.45,-28.44 1.99,-42.54l10.89 -62.82c4.55,-22.98 7.8,-46.42 9.5,-69.79 0.2,-4.82 0.34,-9.82 0.34,-14.71 0,-21.57 -2.39,-43.11 -7.11,-64.15 -4.79,-21.13 -11.95,-41.81 -14.55,-63.35 -0.71,-5.96 -1.07,-12.01 -1.07,-18.03 0,-32.63 10.34,-64.49 29.5,-90.89 5.65,-7.76 13.04,-15.52 22.63,-16.25 7.76,-0.69 15.03,3.45 21.78,7.44 58.59,34.67 117.59,68.63 177,101.86 16.25,9.14 32.87,18.33 50.99,22.84 5.44,1.38 13.25,0.81 14.02,-4.71 0.01,-0.16 0.02,-0.32 0.02,-0.47 0,-1.95 -0.55,-3.86 -1.6,-5.5 -10.16,-19.54 -24.87,-36.33 -36.57,-54.94 -11.7,-18.61 -20.72,-40.63 -17.27,-62.25 4.71,-29.91 32.51,-49.69 55.22,-26.25 25.47,26.62 42.54,60.83 59.24,93.54z"/>
   <path class="fil10" d="M918.67 1064.03c47.66,3.05 96.38,6.3 140.51,24.58 14.18,5.85 29.22,13.41 44.13,9.79 7.42,-2.25 14.33,-5.96 20.32,-10.89 18.3,-13.42 35.78,-28.35 51.96,-44.29 -1.62,-8.9 -13.69,-10.12 -22.71,-10.04 -0.29,0.01 -0.57,0.01 -0.83,0.01 -21.71,0 -43.14,-5.22 -62.42,-15.2 -6.41,-3.85 -13.24,-7.04 -20.31,-9.47 -19.3,-5.32 -38.97,4.84 -58.35,9.79 -28.69,7.31 -58.92,3.05 -88.21,-1.26l-79.08 -11.66c-7.35,-1.06 -15.64,-1.91 -21.49,2.64 -3.91,3.69 -6.59,8.51 -7.68,13.78 -9.67,32.51 -5.04,35.23 27.14,37.26l77.04 4.96z"/>
   <path class="fil3" d="M2128.4 369.86c0,-71.81 -58.21,-130.02 -130.02,-130.02 -71.81,0 -130.02,58.21 -130.02,130.02 0,71.81 58.21,130.02 130.02,130.02 71.81,0 130.02,-58.21 130.02,-130.02z"/>
   <circle class="fil10" cx="1997.44" cy="364.21" r="130.02"/>
   <path class="fil8" d="M2107.19 199.12c10.4,6.42 21.29,13.33 26.98,24.14 3.05,7.31 5.39,14.98 6.94,22.76 7.11,24.38 26.05,45.55 27.18,70.95 1.26,27.83 -19.63,52.01 -43.27,66.6 -5.39,3.97 -11.91,6.16 -18.61,6.25 -6.87,-0.45 -12.8,-4.75 -19.1,-7.52 -26.7,-11.87 -56.56,3.17 -84.84,10.08 -11.67,2.81 -23.72,4.26 -35.75,4.26 -18.02,0 -35.94,-3.22 -52.82,-9.46 -15.24,-5.69 -30.03,-14.22 -39.58,-27.43 -9.55,-13.21 -12.97,-31.69 -4.84,-45.87 4.06,-7.23 10.81,-13.77 10.36,-22.02 -0.24,-4.96 -3.17,-9.43 -4.06,-14.3 -1.3,-7.76 2.76,-15.32 6.91,-21.94 18.77,-30.19 42.62,-57.18 70.3,-79.51 8.13,-6.66 17.51,-13.17 28.16,-13.65 21.37,-0.94 39.74,14.99 61.72,15.07 24.94,0.07 42.86,8.36 64.32,21.61z"/>
   <path class="fil3" d="M1652.87 202.65c0,-74.05 -60.03,-134.09 -134.09,-134.09 -74.05,0 -134.09,60.03 -134.09,134.09 0,74.05 60.03,134.09 134.09,134.09 74.05,0 134.09,-60.03 134.09,-134.09z"/>
   <circle class="fil9" cx="1521.14" cy="199.36" r="134.09"/>
   <path class="fil8" d="M1592.78 275.1c18.94,10.61 42.3,9.51 63.43,4.67 11.97,-2.25 23.35,-7.05 33.32,-14.05 10.03,-7.18 16.23,-18.57 16.78,-30.89 0,-13.61 -8.94,-25.88 -10.04,-39.5 -1.34,-17.15 9.83,-32.99 11.01,-50.22 1.18,-17.23 -7.31,-32.75 -15.6,-47.54 -14.26,-25.39 -29.09,-51.12 -50.79,-70.54 -21.7,-19.42 -51.77,-31.81 -80.21,-25.27 -13.98,3.21 -26.94,10.73 -41.2,12.19 -12.68,1.18 -25.19,-2.64 -37.83,-4.27 -12.64,-1.62 -26.82,-0.61 -35.88,8.13 -4.96,4.88 -8.13,11.74 -13.94,15.32 -3.93,1.82 -8.02,3.33 -12.18,4.51 -14.67,5.89 -21.37,22.43 -26.57,37.3l-34.86 99.92c11.66,8.13 25.72,11.82 38.48,18.08 12.76,6.26 25.15,16.25 27.75,30.23 1.99,10.61 -1.79,22.79 4.39,31.65 5.65,8.13 17.15,9.51 26.9,8.13 9.75,-1.38 19.54,-4.75 29.3,-3.25 24.38,3.7 33.44,18.65 55.99,0 22.55,-18.65 30.8,3.61 51.76,15.4z"/>
   <path class="fil3" d="M1073.2 501.75c0,-67.32 -54.58,-121.9 -121.9,-121.9 -67.32,0 -121.9,54.58 -121.9,121.9 0,67.32 54.58,121.9 121.9,121.9 67.32,0 121.9,-54.58 121.9,-121.9z"/>
   <circle class="fil10" cx="956.02" cy="495.13" r="121.9"/>
   <path class="fil8" d="M1049.35 375.95c-28.96,-22.23 -61.69,-39.45 -96.43,-50.72 -22.27,-7.23 -46.48,-12.19 -69.08,-5.53 -30.64,8.74 -71.64,21.78 -90.61,47.42 -9.34,12.6 -18.81,25.56 -23.32,40.63 -9.02,30.31 3.82,62.62 2.97,94.23 -1.02,36.85 -20.56,70.5 -41.89,100.57 -21.33,30.07 -25.64,73.14 -38.24,107.84 -4.31,11.91 -5.69,28.44 5.4,34.42 9.75,5.4 21.54,-1.34 30.56,-7.84l54.25 -39.21c4.22,-3.45 9.09,-6.06 14.31,-7.63 11.17,-2.6 22.1,4.39 31.45,11.01l113.77 80.45c2.34,-4.78 3.56,-10.03 3.56,-15.35 0,-4.9 -1.04,-9.75 -3.03,-14.22 10.69,3.29 18.45,12.19 27.83,18.53 9.39,6.34 23.65,8.41 30.48,-0.45 6.83,-8.86 1.67,-20.76 -5.93,-27.92 -7.6,-7.15 -17.59,-11.42 -25.03,-18.77 -14.75,-14.67 -16.25,-37.83 -25.56,-56.36 -6.66,-13 -17.43,-23.89 -22.15,-37.75 -7.68,-22.63 2.36,-47.01 12.19,-68.79 11.74,-25.84 25.03,-53.43 50.02,-66.92 8.41,-4.55 17.72,-7.23 26.33,-11.38 21.45,-10.28 48.23,-34.54 58.71,-56.28 9.18,-19.3 -4.96,-37.95 -20.57,-49.98z"/>
   <path class="fil3" d="M864.83 778.79c11.66,7.44 24.83,12.19 36.28,19.95 11.46,7.76 21.49,19.54 21.82,33.36 0.33,13.21 -8.13,24.79 -16.25,35.27l-98.98 129.9 50.47 13.37c-8.13,11.22 -10.2,25.52 -14.43,38.68 -4.23,13.16 -12.19,26.86 -25.68,30.31 -12.19,3.13 -24.95,-3.29 -37.55,-2.56 -9.31,0.57 -18.08,4.96 -27.39,5.32 -11.99,0.45 -23.12,-5.85 -33.12,-12.51 -22.27,-14.91 -44.37,-36.28 -44.21,-63.1 0.53,-9.06 2.36,-18.03 5.42,-26.57 14.59,-47.58 29.7,-96.3 59.93,-135.88 16.25,-21.13 36.12,-38.97 55.99,-56.68 4.5,-4.54 9.83,-8.23 15.68,-10.85 13,-4.88 27.18,1.14 40.63,5.04 13.45,3.9 30.39,4.47 38.15,-7.03m-26.78 3.98l0 0 0 0z"/>
   <g>
    <path class="fil12" d="M860.57 770.79c11.66,7.39 24.83,12.19 36.28,19.95 11.46,7.76 21.49,19.54 21.86,33.32 0.37,13.78 -8.13,24.83 -16.25,35.31l-99.02 129.78 50.47 13.37c-8.13,11.22 -10.2,25.48 -14.43,38.68 -4.23,13.21 -12.19,26.86 -25.68,30.31 -12.19,3.13 -24.95,-3.29 -37.55,-2.56 -9.31,0.53 -18.08,4.96 -27.39,5.28 -11.99,0.45 -23.12,-5.85 -33.12,-12.51 -22.27,-14.87 -44.37,-36.28 -44.17,-63.06 0.49,-9.06 2.31,-18.03 5.37,-26.58 14.59,-47.62 29.7,-96.34 59.93,-135.88 16.25,-21.17 36.16,-39.01 55.99,-56.89 4.54,-4.52 9.85,-8.2 15.68,-10.85 13,-4.88 27.18,1.14 40.63,5.08 13.45,3.94 30.39,4.47 38.15,-7.03l-26.78 4.27zm0 0l0 0 0 0z"/>
   </g>
   <path class="fil13" d="M1878.55 332.8c9.55,13.21 24.38,21.78 39.58,27.43 16.88,6.25 34.78,9.49 52.79,9.49 12.05,0 24.1,-1.46 35.8,-4.29 28.44,-6.91 58.15,-21.94 84.84,-10.08 6.3,2.8 12.19,7.07 19.06,7.56 6.71,-0.11 13.24,-2.31 18.65,-6.29 16.46,-10.16 31.57,-24.95 38.81,-42.38 0,0.89 0,1.79 0.24,2.72 1.26,27.83 -19.63,52.01 -43.27,66.6 -5.39,3.97 -11.91,6.16 -18.61,6.25 -6.87,-0.45 -12.8,-4.75 -19.1,-7.52 -26.7,-11.87 -56.56,3.17 -84.84,10.08 -11.67,2.81 -23.72,4.26 -35.75,4.26 -18.02,0 -35.94,-3.22 -52.82,-9.46 -15.24,-5.69 -30.03,-14.22 -39.58,-27.43 -9.55,-13.21 -12.97,-31.69 -4.84,-45.87l0.61 -1.02c1.31,7.18 4.21,14.01 8.45,19.95l0 0z"/>
   <path class="fil3" d="M1883.95 264.9c0.33,6.26 -3.45,11.5 -7.07,16.82 -0.5,-1.31 -0.9,-2.68 -1.18,-4.06 -1.22,-7.27 2.28,-14.34 6.14,-20.72 1.1,2.53 1.82,5.22 2.11,7.96z"/>
   <path class="fil3" d="M1402.57 61.7l-34.86 99.88c11.66,8.13 25.72,11.87 38.48,18.08 12.76,6.22 25.15,16.25 27.75,30.23 1.99,10.61 -1.79,22.79 4.39,31.69 5.65,8.13 17.15,9.47 26.9,8.13 9.75,-1.34 19.54,-4.75 29.3,-3.25 24.38,3.7 33.44,18.65 55.99,0.2 22.55,-18.45 30.72,3.45 51.69,15.24 18.94,10.65 42.3,9.55 63.43,4.67 11.97,-2.23 23.35,-7.03 33.32,-14.02 1.41,-1.16 2.78,-2.4 4.06,-3.7 -3.11,6.65 -7.8,12.47 -13.65,16.91 -9.97,7 -21.35,11.81 -33.32,14.06 -21.13,4.84 -44.7,5.93 -63.43,-4.67 -20.97,-11.78 -29.58,-33.28 -51.69,-15.24 -22.1,18.04 -31.69,3.49 -55.99,0 -9.75,-1.5 -19.5,1.87 -29.3,3.25 -9.79,1.38 -21.25,0 -26.9,-8.13 -6.18,-8.86 -2.4,-21.05 -4.39,-31.65 -2.6,-13.98 -14.99,-24.01 -27.75,-30.23 -12.76,-6.22 -26.82,-10 -38.48,-18.08l35.02 -100.16c4.06,-11.01 8.53,-22.92 16.66,-30.76 -2.8,5.66 -5.25,11.56 -7.23,17.55l-0 0z"/>
   <path class="fil13" d="M952.07 756.4c8.98,4.06 20.32,4.67 26,-2.93 6.38,-8.13 1.67,-20.72 -5.93,-27.92 -7.6,-7.19 -17.59,-11.42 -25.03,-18.77 -14.75,-14.63 -16.25,-37.79 -25.56,-56.32 -6.66,-13.04 -17.43,-23.93 -22.15,-37.79 -7.68,-22.59 2.36,-47.01 12.19,-68.75 11.74,-25.84 25.03,-53.43 50.02,-66.92 8.41,-4.55 17.72,-7.23 26.33,-11.38 21.45,-10.28 48.23,-34.58 58.71,-56.32 8.82,-18.33 -3.62,-36.12 -18.41,-48.19 7.19,4.67 14.22,9.59 21.05,14.83 15.64,12.19 29.74,30.68 20.32,49.9 -10.48,21.74 -37.26,46 -58.71,56.28 -8.61,4.06 -17.92,6.83 -26.33,11.38 -24.99,13.49 -38.28,41.08 -50.02,66.92 -9.87,21.78 -19.91,46.16 -12.19,68.79 4.71,13.86 15.48,24.75 22.15,37.75 9.43,18.53 10.81,41.69 25.56,56.36 7.44,7.35 17.43,11.58 25.03,18.77 7.6,7.19 12.19,19.63 5.93,27.92 -6.26,8.29 -21.13,6.58 -30.48,0.45 -6.29,-4.27 -12.02,-9.87 -18.49,-14.06z"/>
   <path class="fil3" d="M705.63 720.36l54.25 -39.17c4.21,-3.47 9.09,-6.09 14.31,-7.68 11.17,-2.56 22.1,4.43 31.45,11.05l113.77 80.45c2.34,-4.78 3.56,-10.05 3.56,-15.38 0,-4.91 -1.04,-9.76 -3.03,-14.24 10.44,3.25 18.04,11.95 27.1,18.04 -1.31,-0.6 -2.68,-1.1 -4.06,-1.51 1.99,4.48 3.03,9.33 3.03,14.23 0,5.32 -1.22,10.58 -3.56,15.35l-113.77 -80.45c-9.34,-6.62 -20.32,-13.61 -31.45,-11.01 -5.22,1.58 -10.09,4.18 -14.3,7.64l-54.25 39.21c-9.02,6.5 -20.8,13.25 -30.56,7.84 -5.28,-3.24 -8.5,-9 -8.5,-15.19 0,-0.16 0,-0.33 0.01,-0.49 5.75,-2.04 11.17,-5 16.01,-8.7l-0 0z"/>
   <path class="fil11" d="M2060.87 985.73c0,0 -232.83,18.65 -279.15,-14.34l213 -32.83 66.15 47.17z"/>
   <path class="fil3" d="M2060.87 985.73c0,0 -232.83,18.65 -279.15,-14.34l213 -32.83 66.15 47.17z"/>
   <path class="fil11" d="M2060.87 985.73l-65.22 -41.28c0,0 -194.55,55.91 -247.86,32.83l54.25 -76.11 192.76 37.59 66.07 46.97z"/>
   <path class="fil8" d="M1771.56 438.32c-7.18,9.07 -12.96,19.23 -17.1,30.03 -1.87,5.73 -2.8,11.7 -4.39,17.51 -4.45,14.46 -11.35,28.09 -20.32,40.27 -20.03,29.13 -45.06,57.25 -50.1,92.24 -2.44,17.27 0.24,34.82 3.66,51.93 1.84,11.26 5.09,22.32 9.59,32.79 5.16,11.13 12.84,20.93 18.73,31.69 5.35,10.54 9.94,21.56 13.57,32.82 6.95,-6.95 11.05,-16.25 16.62,-24.38 5.57,-8.13 13.86,-15.44 23.65,-15.56 11.3,0 20.6,9.34 31.77,10.81 0.59,0.12 1.19,0.18 1.79,0.18 1.17,0 2.33,-0.23 3.41,-0.67 4.06,-1.91 4.39,-7.39 4.06,-11.78 -3.21,-30.68 -20.76,-60.95 -12.47,-90.69 7.64,-27.51 34.94,-44.7 49.29,-69.36 10.4,-17.92 13.49,-39.05 16.25,-59.61 3.45,-24.58 6.95,-49.37 5.4,-74.11 -0.77,-12.47 -10.69,-91.3 -28.81,-83.05 -6.3,2.84 -11.78,14.91 -15.72,20.32l-16.25 23.04 -32.63 45.59z"/>
   <polygon class="fil11" points="1285.23,946.85 1154.51,1053.27 986.33,1023.2 1099.57,934.29 "/>
   <polygon class="fil3" points="1289.94,940.23 1159.22,1046.64 991.04,1016.58 1104.29,927.67 "/>
   <polygon class="fil11" points="1289,934.58 1158.29,1040.96 990.07,1010.93 1103.35,921.98 "/>
   <polygon class="fil3" points="1292.78,922.27 1162.03,1028.68 993.84,998.61 1107.13,909.71 "/>
   <polygon class="fil11" points="1291.81,916.62 1161.09,1023.04 992.91,992.97 1106.15,904.06 "/>
   <path class="fil8" d="M3011.28 2370.67l0 0c2.87,-1.39 6.02,-2.12 9.21,-2.12 10.98,0 20.12,8.45 20.98,19.39l7.27 94.31 -43.15 7.8 -22.75 -68.18 28.44 -51.2z"/>
   <path class="fil8" d="M1501.56 1738.54l-660.41 335.14c-15.37,7.84 -25.07,23.67 -25.07,40.94 0,17.4 9.83,33.32 25.4,41.1l1422.36 713.8c23.98,12.01 50.48,18.27 77.31,18.27 29.76,0 59.04,-7.71 84.94,-22.34l599.1 -337.82c14.32,-8.17 23.17,-23.41 23.17,-39.91 0,-17.61 -10.07,-33.67 -25.9,-41.35l-1480.3 -708.27c-6.19,-2.96 -12.97,-4.51 -19.84,-4.51 -7.2,0 -14.32,1.71 -20.75,4.95l-0 -0z"/>
   <path class="fil8" d="M836.72 2015.38l-20.68 15.36 -1.62 73.55c-0,0.23 -0.01,0.47 -0.01,0.7 0,11.45 6.41,21.94 16.59,27.18l1446.66 742.37c3.05,1.57 6.44,2.4 9.87,2.4 11.89,0 21.54,-9.64 21.54,-21.54l0 -106.82 -1472.34 -733.18z"/>
   <path class="fil11" d="M1501.56 1653.3l-660.41 335.1c-15.41,7.83 -25.13,23.67 -25.13,40.97 0,17.38 9.81,33.28 25.34,41.07l1422.48 713.81c23.98,11.99 50.48,18.26 77.31,18.26 29.76,0 59.04,-7.7 84.94,-22.32l599.1 -337.86c14.33,-8.18 23.18,-23.42 23.18,-39.92 0,-17.61 -10.07,-33.67 -25.9,-41.35l-1480.3 -708.23c-6.18,-2.95 -12.95,-4.49 -19.8,-4.49 -7.22,0 -14.36,1.71 -20.79,4.97l0 0z"/>
   <polygon class="fil8" points="1638.25,1714.12 910.59,2083.6 2161.23,2708.94 2911.65,2328.05 "/>
   <ellipse class="fil8" cx="2618.88" cy="2549.78" rx="76.76" ry="45.47"/>
   <circle class="fil8" cx="1218.99" cy="1832.08" r="7.11"/>
   <circle class="fil8" cx="1197.7" cy="1887.51" r="8.53"/>
   <line class="fil2 str1" x1="1228.95" y1="1873.28" x2="1314.24" y2= "1833.5" />
   <path class="fil1" d="M1743.72 2197.24l240.77 -139.01c34.97,-20.2 79.72,-8.21 99.91,26.77l0 0c20.19,34.97 8.2,79.71 -26.77,99.91l-240.76 139.01c-34.98,20.19 -79.72,8.2 -99.91,-26.77l0 0c-20.19,-34.98 -8.21,-79.72 26.77,-99.91z"/>
   <path class="fil1" d="M1959.07 2306.96l240.76 -139.01c34.97,-20.19 79.72,-8.21 99.91,26.77l0 0c20.19,34.97 8.2,79.72 -26.77,99.91l-240.76 139.01c-34.98,20.19 -79.72,8.2 -99.91,-26.77l0 0c-20.19,-34.98 -8.21,-79.72 26.77,-99.91z"/>
   <path class="fil1" d="M1548.68 2071.29l240.77 -139.01c34.98,-20.19 79.72,-8.21 99.91,26.77l0 0c20.19,34.97 8.2,79.72 -26.77,99.91l-240.77 139.01c-34.98,20.19 -79.72,8.2 -99.91,-26.77l0 0c-20.19,-34.98 -8.21,-79.72 26.77,-99.91z"/>
  </g>
 </g>
</svg>
