<?xml version="1.0" encoding="UTF-8"?>
<!DOCTYPE svg PUBLIC "-//W3C//DTD SVG 1.1//EN" "http://www.w3.org/Graphics/SVG/1.1/DTD/svg11.dtd">
<!-- Creator: CorelDRAW 2018 (64 Bit Versão de avaliação) -->
<svg xmlns="http://www.w3.org/2000/svg" xml:space="preserve" width="44.1806mm" height="50.8mm" version="1.1" style="shape-rendering:geometricPrecision; text-rendering:geometricPrecision; image-rendering:optimizeQuality; fill-rule:evenodd; clip-rule:evenodd"
viewBox="0 0 188.88 217.18"
 xmlns:xlink="http://www.w3.org/1999/xlink">
 <defs>
  <style type="text/css">
   <![CDATA[
    .fil9 {fill:#FEFEFE;fill-rule:nonzero}
    .fil19 {fill:#FFF5E9;fill-rule:nonzero}
    .fil2 {fill:#F7A285;fill-rule:nonzero}
    .fil3 {fill:#F69481;fill-rule:nonzero}
    .fil30 {fill:#F8E0DF;fill-rule:nonzero}
    .fil14 {fill:#F8D1B3;fill-rule:nonzero}
    .fil25 {fill:#EF6F50;fill-rule:nonzero}
    .fil16 {fill:#F7FBFE;fill-rule:nonzero}
    .fil0 {fill:#F1F1F0;fill-rule:nonzero}
    .fil12 {fill:#EACBBA;fill-rule:nonzero}
    .fil6 {fill:#E5E6E5;fill-rule:nonzero}
    .fil4 {fill:#D4D3D1;fill-rule:nonzero}
    .fil8 {fill:#CCCDCC;fill-rule:nonzero}
    .fil29 {fill:#CDB7A7;fill-rule:nonzero}
    .fil18 {fill:#C9CCCC;fill-rule:nonzero}
    .fil13 {fill:#C6CDD8;fill-rule:nonzero}
    .fil28 {fill:#C7AFA0;fill-rule:nonzero}
    .fil27 {fill:#A67655;fill-rule:nonzero}
    .fil5 {fill:#B4B4B3;fill-rule:nonzero}
    .fil26 {fill:#976648;fill-rule:nonzero}
    .fil24 {fill:#753834;fill-rule:nonzero}
    .fil11 {fill:#A7B6C4;fill-rule:nonzero}
    .fil10 {fill:#838485;fill-rule:nonzero}
    .fil1 {fill:#7A8591;fill-rule:nonzero}
    .fil17 {fill:#747F88;fill-rule:nonzero}
    .fil7 {fill:#6C6D6D;fill-rule:nonzero}
    .fil15 {fill:#6B7D8E;fill-rule:nonzero}
    .fil22 {fill:#464B55;fill-rule:nonzero}
    .fil23 {fill:#323055;fill-rule:nonzero}
    .fil21 {fill:#BC7E02;fill-rule:nonzero}
    .fil20 {fill:#FFC700;fill-rule:nonzero}
   ]]>
  </style>
 </defs>
 <g id="Camada_x0020_1">
  <metadata id="CorelCorpID_0Corel-Layer"/>
  <g id="_2234878383888">
   <path class="fil0" d="M1.06 217.18l187.83 0 0 -217.18 -86.84 0c-20.78,3.75 -49.01,4.34 -53.42,18.06 -9.55,29.64 17.72,46.06 0,63.77 -17.72,17.71 -64.03,41.83 -41.16,71.32 22.87,29.49 5.73,28.83 0,37.44 -4.59,6.89 -9.71,16.89 -6.4,26.59z"/>
   <path class="fil1" d="M148.83 200.92c-1.71,0 -3.14,-1.33 -3.25,-3.06 -0.11,-1.79 1.25,-3.34 3.04,-3.45 0.09,-0.01 3.98,-0.31 9.11,-2.41 6.85,-2.8 12.59,-7.31 17.05,-13.42 1.06,-1.45 3.1,-1.77 4.55,-0.7 1.45,1.06 1.77,3.1 0.71,4.55 -12.54,17.14 -30.26,18.43 -31.01,18.48 -0.07,0 -0.14,0.01 -0.21,0.01z"/>
   <path class="fil1" d="M22.43 142.2c0,-1.71 1.33,-3.14 3.05,-3.25 1.79,-0.11 3.34,1.25 3.45,3.04 0.01,0.09 0.31,3.98 2.4,9.11 2.8,6.85 7.31,12.59 13.42,17.05 1.45,1.06 1.77,3.1 0.71,4.55 -1.06,1.45 -3.1,1.77 -4.55,0.7 -17.14,-12.54 -18.43,-30.26 -18.48,-31.01 -0,-0.07 -0.01,-0.14 -0.01,-0.21z"/>
   <path class="fil1" d="M119.44 13.73c1.27,1.14 1.44,3.09 0.37,4.44 -1.12,1.41 -3.16,1.64 -4.57,0.53 -0.07,-0.06 -3.16,-2.43 -8.38,-4.31 -6.96,-2.5 -14.25,-2.99 -21.65,-1.44 -1.76,0.37 -3.49,-0.76 -3.86,-2.52 -0.37,-1.76 0.76,-3.49 2.52,-3.85 20.79,-4.34 34.82,6.56 35.4,7.02l0.16 0.13z"/>
   <polygon class="fil2" points="39.06,139.48 57.83,129.64 64.89,148.23 46.3,154.79 "/>
   <path class="fil3" d="M45.1 138.67c0,0 5.9,-1.22 8.42,0 2.51,1.22 4.66,8.68 4.66,8.68l12.38 0.88 -11.2 -21.04 -11.61 5.5 -2.65 5.98z"/>
   <path class="fil4" d="M49.2 69.01c-9.51,4.18 -13.84,15.28 -9.66,24.79l31.86 72.54c4.18,9.51 15.28,13.84 24.79,9.66l92.7 -40.71 0 -127.62 -139.68 61.34z"/>
   <path class="fil5" d="M174.17 132.62c-3.5,0 -6.33,-2.83 -6.33,-6.33 0,-0.46 0.05,-0.9 0.14,-1.34 0.6,2.62 2.94,4.57 5.74,4.57 3.25,0 5.89,-2.64 5.89,-5.89 0,-0.22 -0.01,-0.43 -0.04,-0.65 0.59,0.96 0.93,2.09 0.93,3.3 0,3.5 -2.83,6.33 -6.33,6.33z"/>
   <path class="fil5" d="M149.2 49.23c-3.5,0 -6.33,-2.83 -6.33,-6.33 0,-0.27 0.02,-0.54 0.05,-0.8 0.4,2.86 2.86,5.06 5.83,5.06 3.25,0 5.89,-2.64 5.89,-5.89 0,-0.81 -0.16,-1.58 -0.46,-2.29 0.85,1.08 1.35,2.43 1.35,3.91 0,3.5 -2.83,6.33 -6.33,6.33z"/>
   <path class="fil5" d="M59.4 96.78c-2.5,0 -4.67,-1.45 -5.69,-3.56l1.62 -1c1.08,1.24 2.67,2.02 4.44,2.02 2.98,0 5.45,-2.22 5.84,-5.1 0.09,0.42 0.14,0.86 0.14,1.32 0,3.5 -2.83,6.33 -6.33,6.33zm-6.27 -5.46c-0.04,-0.29 -0.06,-0.58 -0.06,-0.87 0,-1.2 0.34,-2.33 0.92,-3.29 -0.08,0.38 -0.12,0.78 -0.12,1.18 0,0.8 0.16,1.55 0.44,2.25l-1.18 0.73z"/>
   <path class="fil5" d="M72.56 168.56c-0.43,-0.71 -0.82,-1.45 -1.16,-2.22l0 0 -3.67 -8.37 3.96 0.91 25.34 -21.99 6.04 -6.18c0,0 0.88,0.81 0.48,1.76 -0.41,0.95 -1.39,6.73 -1.92,8.05 -0.53,1.32 -4.46,3.76 -4.46,3.76 0,0 -13.3,18.66 -16.22,20.97 -1.63,1.29 -5.37,2.49 -8.38,3.3z"/>
   <path class="fil5" d="M79.69 127.35c-1.87,0 -6.83,-0.62 -6.83,-0.62l-20.65 -4.08 -3.6 -8.19 0.63 -2.08 12.3 2.68 19.8 5.68 3.53 1.49 -0.27 2.1 -2.11 0.95c0,0 -1.01,1.9 -2.37,2.04 -0.11,0.01 -0.26,0.02 -0.43,0.02z"/>
   <path class="fil5" d="M114.71 167.78l-2.71 -22.17 -2.62 -11.81 -7.3 -12.51 38.19 -16.62c0,0 0.27,0.44 0.29,0.83 0.02,0.38 0.38,6.26 0.38,6.26l1.38 12.81 7.29 11.8 11.12 11.3 -46.01 20.12z"/>
   <path class="fil6" d="M140.38 112.49l-32.69 14.12c-0.66,0.28 -0.96,1.05 -0.68,1.71l9.32 21.57c0.28,0.66 1.05,0.96 1.71,0.68l32.69 -14.12c0.66,-0.28 0.96,-1.05 0.68,-1.71l-9.32 -21.57c-0.28,-0.66 -1.05,-0.96 -1.71,-0.68z"/>
   <path class="fil7" d="M137.37 114.87l-25.9 11.19c-0.53,0.23 -0.78,0.85 -0.55,1.38l5.6 12.96c0.23,0.53 0.85,0.78 1.38,0.55l25.9 -11.19c0.53,-0.23 0.78,-0.85 0.55,-1.38l-5.6 -12.96c-0.23,-0.53 -0.85,-0.78 -1.38,-0.55z"/>
   <path class="fil8" d="M133.49 135.43l-4.38 1.89c-0.55,0.24 -0.81,0.88 -0.57,1.43l1.57 3.63c0.24,0.55 0.88,0.81 1.43,0.57l4.38 -1.89c0.55,-0.24 0.81,-0.88 0.57,-1.43l-1.57 -3.63c-0.24,-0.55 -0.88,-0.81 -1.43,-0.57z"/>
   <path class="fil9" d="M139.19 104.46l-18.27 7.89 -18.27 7.89c-0.61,0.26 -0.77,1.05 -0.32,1.54l4.44 4.73c0.2,0.22 0.52,0.28 0.79,0.16l16.47 -7.12 16.47 -7.12c0.27,-0.12 0.44,-0.39 0.42,-0.69l-0.4 -6.48c-0.04,-0.66 -0.73,-1.08 -1.34,-0.82z"/>
   <path class="fil10" d="M140.93 111.75l-0.4 -6.45c-0.25,-0.23 -0.65,-0.31 -1.04,-0.15l-18.27 7.89 -18.27 7.89c-0.38,0.17 -0.6,0.51 -0.6,0.86l4.42 4.71c0.2,0.22 0.52,0.28 0.79,0.16l16.47 -7.12 16.47 -7.12c0.27,-0.12 0.44,-0.39 0.42,-0.69z"/>
   <path class="fil11" d="M139.3 112.16l-0.12 -5.32c-0.22,-0.18 -0.57,-0.24 -0.92,-0.08l-16.65 7.19 -16.65 7.19c-0.35,0.15 -0.56,0.45 -0.57,0.73l3.79 3.73c0.17,0.17 0.45,0.21 0.7,0.11l15.01 -6.49 15.01 -6.48c0.25,-0.11 0.41,-0.34 0.4,-0.58z"/>
   <path class="fil12" d="M123.11 151.17l-1.48 -7.12c0,0 1.4,-4.52 1.29,-5.38 -0.11,-0.86 -1.64,-6.26 -1.64,-6.26 0,0 -1.03,-0.11 -1.25,0.44 -0.22,0.55 0,3.19 0,3.19 0,0 -0.77,-0.83 -0.99,-1.33 -0.17,-0.37 -0.52,-4.08 -0.68,-5.86 -0.05,-0.54 -0.5,-0.94 -1.04,-0.94 -0.52,0 -0.96,0.39 -1.03,0.91l-0.27 2.09 -1.76 0.35 -0.82 1.92 -1.85 3.95 1.16 4.46 2.61 3.44 0.55 6.13 7.19 0z"/>
   <path class="fil12" d="M148.02 140.53l-4.9 -5.37c0,0 -4.48,-1.52 -5.12,-2.11 -0.64,-0.59 -4.12,-4.99 -4.12,-4.99 0,0 0.51,-0.9 1.09,-0.76 0.57,0.14 2.59,1.87 2.59,1.87 0,0 -0.22,-1.11 -0.49,-1.58 -0.21,-0.35 -3,-2.82 -4.35,-3.99 -0.41,-0.35 -0.47,-0.96 -0.16,-1.39 0.31,-0.42 0.88,-0.56 1.34,-0.3l1.85 1.01 1.31 -1.22 2.04 0.46 4.29 0.82 2.94 3.56 1.27 4.13 4.65 4.04 -4.21 5.83z"/>
   <polygon class="fil9" points="102.96,134.35 72.86,145.07 65.18,123.5 95.28,112.79 "/>
   <polygon class="fil13" points="101.62,133.03 94.51,113.06 65.18,123.5 72.29,143.47 "/>
   <polygon class="fil9" points="101.38,132.75 71.29,143.47 63.6,121.9 93.7,111.19 "/>
   <path class="fil14" d="M68.94 115.07l3.76 1.58c0,0 4.3,-0.9 5.72,-0.36 1.42,0.54 5.67,3.25 6.12,3.57 0.45,0.32 1.14,1.81 1.14,2.13 0,0.32 -0.91,1.67 -1.89,1.76 -0.98,0.09 -5.51,0.23 -5.51,0.23 0,0 1.15,1 1.34,1.27 0.19,0.27 0.23,1.04 0.08,1.18 -0.15,0.14 -3.65,-1.36 -4.64,-1.67 -1,-0.32 -2.49,-1.63 -2.76,-1.9 -0.27,-0.27 -1.19,-1.31 -1.19,-1.31l-4.15 -1.68 2 -4.79z"/>
   <path class="fil14" d="M92.66 145.61l2.62 -3.13c0,0 4.24,-1.17 5.25,-2.3 1.01,-1.13 0.69,-2.93 0.94,-3.42 0.25,-0.49 -0.12,-3.66 0.1,-3.89 0.78,-0.83 1.88,-1.64 2.53,-2.36 1.14,-1.26 0.32,-1.82 -0.25,-1.59 -0.92,0.37 -6.98,4.49 -6.98,4.49 0,0 0.57,-1.41 0.61,-1.74 0.05,-0.33 -0.27,-1.03 -0.47,-1.08 -0.2,-0.05 -2.62,2.88 -3.36,3.62 -0.74,0.74 -1.47,2.59 -1.59,2.96 -0.11,0.36 -0.46,1.71 -0.46,1.71l-2.92 3.39 3.97 3.34z"/>
   <path class="fil15" d="M114.79 68.45l-23.82 7.93c-1.42,0.47 -2.19,2.01 -1.72,3.43l4.75 14.28c0.47,1.42 2.01,2.19 3.43,1.72l23.82 -7.93c1.42,-0.47 2.19,-2.01 1.72,-3.43l-4.76 -14.28c-0.47,-1.42 -2.01,-2.19 -3.43,-1.72z"/>
   <path class="fil16" d="M92.24 76.68c-1.06,0.35 -1.63,1.5 -1.28,2.55l4.75 14.28c0.35,1.06 1.5,1.63 2.55,1.28l22.76 -7.58c1.06,-0.35 1.63,-1.5 1.28,-2.55l-4.75 -14.28c-0.35,-1.06 -1.5,-1.63 -2.55,-1.28l-22.76 7.58zm29.23 11.85l-23.82 7.93c-1.78,0.59 -3.72,-0.37 -4.31,-2.16l-4.76 -14.28c-0.59,-1.78 0.37,-3.72 2.16,-4.31l23.82 -7.93c1.78,-0.59 3.72,0.37 4.31,2.16l4.75 14.28c0.59,1.78 -0.37,3.72 -2.16,4.31z"/>
   <path class="fil4" d="M93.12 86.45c0.15,0.44 -0.09,0.92 -0.54,1.07 -0.44,0.15 -0.92,-0.09 -1.07,-0.54 -0.15,-0.44 0.09,-0.92 0.54,-1.07 0.44,-0.15 0.92,0.09 1.07,0.54z"/>
   <path class="fil5" d="M91.32 88.25l-20.12 -28.9 48.19 -21.16 4.64 11.6 -0.54 5.6 -35.27 12.87 3.89 7.01 -1.37 0.46c-1.78,0.59 -2.75,2.53 -2.16,4.31l2.74 8.22z"/>
   <path class="fil17" d="M94.98 91.3l-4.02 -12.06c-0.35,-1.06 0.22,-2.2 1.28,-2.55l0.56 -0.19 2.3 4.14 5.85 1.65 2.86 6.79 -8.83 2.23z"/>
   <path class="fil18" d="M93.68 91.63l-2.35 -3.38 -2.74 -8.22c-0.59,-1.78 0.37,-3.72 2.16,-4.31l1.37 -0.46 0.69 1.23 -0.56 0.19c-1.06,0.35 -1.63,1.5 -1.28,2.55l4.02 12.06 -1.3 0.33zm-1.36 -5.76c-0.09,0 -0.18,0.01 -0.27,0.04 -0.44,0.15 -0.68,0.63 -0.54,1.07 0.12,0.35 0.45,0.58 0.8,0.58 0.09,0 0.18,-0.01 0.27,-0.04 0.44,-0.15 0.68,-0.63 0.54,-1.07 -0.12,-0.35 -0.45,-0.58 -0.8,-0.58z"/>
   <path class="fil5" d="M92.31 87.57c-0.35,0 -0.68,-0.22 -0.8,-0.58 -0.15,-0.44 0.09,-0.92 0.54,-1.07 0.09,-0.03 0.18,-0.04 0.27,-0.04 0.35,0 0.68,0.22 0.8,0.58 0.15,0.44 -0.09,0.92 -0.54,1.07 -0.09,0.03 -0.18,0.04 -0.27,0.04z"/>
   <path class="fil19" d="M102.55 85.46l-4.66 -2.14c-0.23,-0.11 -0.51,-0.04 -0.67,0.17l-0.05 0.06c-0.21,0.28 -0.11,0.69 0.22,0.83l4.7 2.08c0.26,0.12 0.57,0.01 0.71,-0.24 0.15,-0.28 0.03,-0.62 -0.26,-0.76z"/>
   <path class="fil12" d="M92.54 55.39c0,0 -1.37,0.58 -2.65,0.74 -1.28,0.16 -2.91,-0.54 -4,-0.37 -1.09,0.17 -3.8,2.07 -3.8,2.07l-1.04 2.53 -0.63 4.16 4.66 1.9c0,0 1.2,0.54 3.14,-0.5 1.95,-1.04 5.46,-4.07 5.46,-4.07l2.35 -1.22 -3.48 -5.25z"/>
   <path class="fil12" d="M95.8 78.91l3.18 1.11c0,0 1.67,1.78 1.97,2.27 0.31,0.49 0,1.97 0,1.97 0,0 1.11,1.11 1.04,2.15 -0.06,1.05 -1.72,2.46 -3.81,2.52 -2.09,0.06 -4.3,0.31 -4.79,0 -0.49,-0.31 -2.83,-5.01 -2.83,-5.01l-3.32 -4.58 6.45 -3.13 2.1 2.7z"/>
   <path class="fil20" d="M28.53 144.94c0,0 -1.04,-10.87 1.43,-14.26 2.47,-3.39 15.81,-26.84 16.94,-27.78 1.13,-0.93 24.78,12.1 24.78,12.1 0,0 -2.65,6.22 -2.93,6.35 -0.28,0.12 -17.81,-6.25 -17.81,-6.25l-3.06 9.8 4.54 -1.75 4.07 9.27c0,0 -4.82,3.04 -13.02,7.07 -8.2,4.04 -14.94,5.46 -14.94,5.46z"/>
   <path class="fil20" d="M37.65 162.71c-0.11,0.28 11.77,9.02 16.35,7.44 4.59,-1.57 22.43,-6 24.86,-7.73 2.43,-1.73 15.82,-17.62 15.82,-17.62l-4.25 -5.17 -14.11 12.77 -9.73 3.02 -4.6 -10.47c0,0 -19.74,5.96 -24.34,17.77z"/>
   <path class="fil20" d="M113.87 148.88l10.53 -1.4 3.97 14.38 26.92 -11.82 -9.34 -9.24 6.4 -7.79 20.69 16.98c0,0 6.06,17.89 5.9,19.87 -0.16,1.98 -7.34,17 -18.23,22.08 -10.89,5.08 -25.65,-1.49 -27.61,-1.95 -1.96,-0.46 -13.6,-15.23 -13.81,-15.72 -0.22,-0.49 -5.41,-25.39 -5.41,-25.39z"/>
   <path class="fil20" d="M124.66 48.44c-1.34,-7.14 -1.95,-23.14 -3.28,-25.42 -1.75,-2.97 -5.77,-7.14 -12.14,-9.62 0,0 -27.2,-2.35 -33.43,1.49 -6.23,3.84 -8.5,37.53 -8.49,39.06 0.01,1.53 20.95,28.18 20.95,28.18l6.64 -5.21 -13.44 -22.08 29.87 -13.11 0.54 3.72 -20.85 9.62 4.13 7.4 26.7 -9.25c1.99,-0.67 3.19,-2.71 2.8,-4.78z"/>
   <polygon class="fil21" points="91.46,79.62 88.95,80.16 67.48,54.38 88.27,82.13 "/>
   <path class="fil21" d="M124.69 49.79c-0.05,0.07 -1.31,1.81 -3.24,2.54 -1.97,0.75 -25.05,7.81 -25.05,7.81l-2.73 -0.33 1.48 2.65 26.7 -9.25c1.55,-0.52 2.62,-1.88 2.83,-3.42z"/>
   <path class="fil21" d="M81.47 54.84l4.28 -31.62c0,0 12.31,-1.27 15.75,0 3.44,1.27 8.58,3.56 8.58,3.56l1.26 14.94 -29.87 13.11z"/>
   <path class="fil21" d="M77.79 17.15c0,0 6.51,7.97 6.65,15.79 0.14,7.83 2.67,4.57 2.67,4.57l-1.36 -14.3c0,0 -3.35,-4.61 -7.96,-6.06z"/>
   <path class="fil21" d="M110.36 30.08c0,0 -1.44,-8.4 2.64,-12.47 0,0 -5.16,2.26 -6.7,8.14 -1.54,5.88 4.06,4.33 4.06,4.33z"/>
   <path class="fil12" d="M104.63 24.15c0.21,-0.08 -0.17,5.73 -0.17,5.73l-1.91 2.97c0,0 -4.43,3.17 -5.26,3.55 -0.83,0.39 -5.66,0.46 -5.66,0.46 0,0 -1.45,0.69 -2.13,0.38 -0.68,-0.32 -1.4,-2.73 -1.4,-2.73 0,0 -2.68,-1.45 -2.59,-6.99 0.09,-5.54 7.14,-7.97 7.14,-7.97l11.97 4.6z"/>
   <path class="fil12" d="M87.38 13.85c0,0 -1.64,-0.67 -2.58,0.58 -0.94,1.26 0.65,3.59 0.65,3.59l1.93 -4.17z"/>
   <path class="fil12" d="M109.24 24.42c0,0 1.22,0.34 1.23,1.37 0.01,1.03 -2.35,3.54 -4,3.35 -1.64,-0.19 2.77,-4.72 2.77,-4.72z"/>
   <path class="fil22" d="M84.73 25.77c0,0 -0.93,-10.03 2.35,-14.79 3.27,-4.77 6.86,-5.59 6.86,-5.59 0,0 3.4,-2.22 7.68,-0.71 4.28,1.51 8.01,5.49 9.38,9.68 1.38,4.19 -0.61,10.27 -2.92,13.22 -2.32,2.96 -5.52,5.26 -5.52,5.26 0,0 1.32,-3.89 -0.22,-4.13 0,0 -6.21,4.71 -10.36,4.45 -4.15,-0.26 -4.94,-1.1 -4.94,-1.1 0,0 5.07,-1.21 7.18,-2.96 0,0 -5.91,1.76 -8.61,1.7l1.99 -2.51 -1.37 0.67c0,0 -1.39,-1.23 -1.49,-3.18z"/>
   <path class="fil23" d="M51.67 152.03c0,0 0.55,2.24 -0.44,3.81 -0.99,1.57 -2.9,1.89 -4.16,3.65 -1.27,1.76 -3.75,5.23 -7.24,5.31 -3.49,0.08 -6.11,-3.59 -8.15,-4.36 -2.04,-0.77 -7.24,0.68 -8.87,-2.58 -1.63,-3.26 2.22,-8.73 -0.32,-11.54 -2.53,-2.81 -2.16,-6.17 -0.72,-7.78 2.34,-2.62 5.43,-2.87 9,-0.84 3.57,2.04 5.61,0.52 7.24,-0.02 1.63,-0.54 4.39,-0.74 5.43,-0.28 1.04,0.46 1.75,2.29 1.75,2.29l6.48 12.34z"/>
   <path class="fil21" d="M52.42 123.14l-4.54 1.75 -2.78 7.06c0,0 4.41,-0.61 5.43,0 0.47,0.28 1.35,1.49 2.14,2.7 2.47,-1.39 3.82,-2.24 3.82,-2.24l-4.07 -9.27z"/>
   <path class="fil21" d="M62 144.94c0,0 -1.21,0.37 -3.11,1.1 0.82,1.89 2.03,5.1 1.76,7.01 -0.41,2.85 -4.15,5.02 -4.15,5.02l10.1 -2.66 -4.6 -10.47z"/>
   <path class="fil14" d="M141.21 173.94c0,0 -1.8,-4.89 0.04,-7.77 2.14,-3.35 8,-5.54 11.72,-4.11 5.45,2.1 5.07,3.86 5.07,3.86l-16.82 8.02z"/>
   <path class="fil24" d="M160.68 166.37c0,0 -3.94,-4.25 -9.79,-3.31 -5.85,0.93 -7.16,2.17 -7.16,2.17l1.52 -0.04 -2.72 2.08c0,0 -3.22,5.26 -3.13,9 0.09,3.74 1.86,6.13 1.86,6.13 0,0 0.69,3.66 2.42,5.23 1.73,1.57 5.9,3.24 9.04,2.91 3.15,-0.32 5.88,-1.99 5.88,-1.99 0,0 2.67,-0.18 4.66,-2.56 2,-2.38 1.85,-4.95 1.85,-4.95 0,0 1.9,-2.35 2,-3.75 0.1,-1.39 -0.96,-4.9 -0.96,-4.9 0,0 -1.34,-5.8 -5.48,-6.01z"/>
   <path class="fil21" d="M128.37 161.87l1.64 6.73 4.48 5.35c0,0 1.22,-7.5 7.06,-12.33 5.84,-4.83 16.02,-3.61 17.51,-3.54 1.49,0.07 7.19,6.74 7.19,6.74l-3.12 -8.32 -7.84 -6.44 -26.92 11.82z"/>
   <path class="fil21" d="M177.13 174.27c-0,0 -11.03,14.18 -21.2,16.99 -8.92,2.46 -19.74,-0.37 -22.28,-1.1 3.34,1.11 16.89,6.52 27.06,1.78 7.75,-3.61 13.63,-12.27 16.42,-17.67z"/>
   <path class="fil19" d="M100.02 84.26l-5.18 -2.38c-0.26,-0.12 -0.57,-0.04 -0.74,0.19l-0.05 0.07c-0.24,0.31 -0.12,0.77 0.24,0.93l5.23 2.31c0.29,0.13 0.63,0.01 0.79,-0.27 0.16,-0.31 0.03,-0.69 -0.28,-0.84z"/>
   <polygon class="fil9" points="135.89,100.59 167.83,100.59 167.83,77.69 135.89,77.69 "/>
   <polygon class="fil13" points="135.89,98.89 167.02,98.89 167.02,77.69 135.89,77.69 "/>
   <polygon class="fil9" points="134.94,98.55 166.88,98.55 166.88,75.66 134.94,75.66 "/>
   <polygon class="fil9" points="173.45,74.72 141.88,79.59 138.39,56.96 169.96,52.09 "/>
   <polygon class="fil13" points="172.39,73.17 169.16,52.22 138.39,56.96 141.62,77.91 "/>
   <polygon class="fil9" points="172.2,72.85 140.63,77.72 137.14,55.1 168.71,50.23 "/>
   <path class="fil25" d="M52.07 93.11c0.28,0.45 0.87,0.59 1.32,0.31l3.31 -2.05 -1.01 -1.63 -3.31 2.05c-0.45,0.28 -0.59,0.87 -0.31,1.32z"/>
   <path class="fil25" d="M65.64 88.34c0,3.25 -2.64,5.89 -5.89,5.89 -3.25,0 -5.89,-2.64 -5.89,-5.89 0,-3.25 2.64,-5.89 5.89,-5.89 3.25,0 5.89,2.64 5.89,5.89z"/>
   <path class="fil16" d="M54.33 87.37c0.07,-0.55 0.24,-1.09 0.47,-1.6 0.24,-0.51 0.57,-0.98 0.96,-1.39 0.79,-0.82 1.83,-1.39 2.96,-1.6 0.14,-0.02 0.28,-0.04 0.42,-0.06 0.14,-0.02 0.28,-0.02 0.43,-0.03 0.07,-0 0.14,-0.01 0.21,-0.01l0.21 0.01c0.14,0 0.28,0.02 0.43,0.04 0.56,0.07 1.12,0.23 1.63,0.48 0.51,0.24 0.99,0.56 1.4,0.95 0.4,0.39 0.76,0.84 1.02,1.33 -0.63,-0.92 -1.51,-1.64 -2.51,-2.06 -1,-0.43 -2.12,-0.54 -3.18,-0.35 -1.06,0.2 -2.06,0.72 -2.85,1.47 -0.78,0.76 -1.34,1.75 -1.6,2.83z"/>
   <path class="fil26" d="M64.51 88.34c0,2.63 -2.13,4.76 -4.76,4.76 -2.63,0 -4.76,-2.13 -4.76,-4.76 0,-2.63 2.13,-4.76 4.76,-4.76 2.63,0 4.76,2.13 4.76,4.76z"/>
   <path class="fil27" d="M55.19 89.69c0.58,1.97 2.4,3.41 4.56,3.41 2.41,0 4.4,-1.79 4.71,-4.12 -0.58,-1.97 -2.4,-3.41 -4.56,-3.41 -2.41,0 -4.4,1.79 -4.71,4.12z"/>
   <path class="fil28" d="M63.53 87.25c-0.08,-0.09 -0.16,-0.19 -0.25,-0.27 -0.09,-0.23 -0.2,-0.44 -0.33,-0.65l0.02 -0.1 0.1 0.02c0.2,0.31 0.35,0.65 0.45,1.01z"/>
   <path class="fil29" d="M59.75 92.27c-0.21,0 -0.42,-0.02 -0.62,-0.05l-0.06 -0.09 0.09 -0.06c0.2,0.03 0.4,0.05 0.6,0.05 2.08,0 3.77,-1.69 3.77,-3.77 0,-0.47 -0.09,-0.93 -0.26,-1.37 0.09,0.09 0.17,0.18 0.25,0.27 0.1,0.35 0.15,0.72 0.15,1.09 0,2.16 -1.76,3.93 -3.93,3.93z"/>
   <path class="fil28" d="M55.86 87.83c0.14,-1.06 0.71,-2.03 1.59,-2.67l0.11 0.02 -0.02 0.11c-0.75,0.54 -1.27,1.35 -1.47,2.24 -0.07,0.1 -0.14,0.2 -0.21,0.31z"/>
   <path class="fil29" d="M56.89 90.99l-0.06 -0.03c-0.65,-0.72 -1.01,-1.65 -1.01,-2.63 0,-0.17 0.01,-0.34 0.03,-0.51 0.07,-0.11 0.14,-0.21 0.21,-0.31 -0.06,0.27 -0.09,0.54 -0.09,0.82 0,0.94 0.35,1.83 0.97,2.53l-0.01 0.11 -0.05 0.02z"/>
   <path class="fil29" d="M57.27 88.78l-0.08 -0.06c-0.02,-0.12 -0.03,-0.25 -0.03,-0.37 0,-1.43 1.16,-2.59 2.59,-2.59 0.13,0 0.26,0.01 0.38,0.03l0.06 0.09 -0.09 0.06c-0.12,-0.02 -0.24,-0.03 -0.36,-0.03 -1.34,0 -2.44,1.09 -2.44,2.44 0,0.12 0.01,0.24 0.03,0.35l-0.06 0.09 -0.01 0z"/>
   <path class="fil29" d="M59.75 90.93c-0.72,0 -1.42,-0.31 -1.91,-0.84l0.01 -0.11 0.11 0.01c0.46,0.5 1.11,0.79 1.8,0.79 0.67,0 1.32,-0.28 1.78,-0.78l0.11 -0 0 0.11c-0.49,0.52 -1.18,0.82 -1.89,0.82z"/>
   <path class="fil29" d="M62.26 88.61l-0.01 -0 -0.07 -0.08 0.01 -0.19c0,-0.92 -0.51,-1.75 -1.33,-2.17l-0.03 -0.1 0.1 -0.03c0.87,0.44 1.42,1.33 1.42,2.31 0,0.07 -0,0.13 -0.01,0.2l-0.07 0.07z"/>
   <path class="fil29" d="M59.75 90.35l-0.08 -0.08 0.08 -0.08c0.66,0 1.25,-0.34 1.59,-0.9l0.1 -0.03 0.03 0.1c-0.37,0.61 -1.01,0.97 -1.72,0.97z"/>
   <path class="fil29" d="M58.08 87.44l-0.04 -0.01 -0.03 -0.1c0.36,-0.62 1.02,-1 1.74,-1 0.54,0 1.04,0.21 1.42,0.59l0 0.11 -0.11 0c-0.35,-0.35 -0.82,-0.54 -1.31,-0.54 -0.66,0 -1.27,0.35 -1.6,0.92l-0.07 0.04z"/>
   <path class="fil25" d="M155.31 34.67c-0.37,-0.37 -0.98,-0.37 -1.35,0l-2.75 2.75 1.35 1.35 2.75 -2.75c0.37,-0.37 0.37,-0.98 0,-1.35z"/>
   <path class="fil25" d="M154.64 41.27c0,3.25 -2.64,5.89 -5.89,5.89 -3.25,0 -5.89,-2.64 -5.89,-5.89 0,-3.25 2.64,-5.89 5.89,-5.89 3.25,0 5.89,2.64 5.89,5.89z"/>
   <path class="fil16" d="M143.32 40.3c0.07,-0.55 0.24,-1.09 0.47,-1.6 0.24,-0.51 0.57,-0.98 0.96,-1.39 0.79,-0.82 1.84,-1.39 2.96,-1.6 0.14,-0.02 0.28,-0.04 0.42,-0.06 0.14,-0.02 0.28,-0.02 0.43,-0.03 0.07,-0 0.14,-0.01 0.21,-0.01l0.21 0.01c0.14,0 0.28,0.02 0.42,0.04 0.57,0.07 1.12,0.23 1.63,0.48 0.51,0.24 0.99,0.56 1.4,0.95 0.4,0.39 0.76,0.84 1.02,1.33 -0.63,-0.92 -1.51,-1.64 -2.51,-2.06 -1,-0.43 -2.12,-0.53 -3.18,-0.35 -1.06,0.2 -2.06,0.72 -2.85,1.47 -0.78,0.76 -1.34,1.75 -1.6,2.83z"/>
   <path class="fil26" d="M153.51 41.27c0,2.63 -2.13,4.76 -4.76,4.76 -2.63,0 -4.76,-2.13 -4.76,-4.76 0,-2.63 2.13,-4.76 4.76,-4.76 2.63,0 4.76,2.13 4.76,4.76z"/>
   <path class="fil27" d="M144.19 42.62c0.58,1.97 2.4,3.41 4.56,3.41 2.41,0 4.4,-1.79 4.71,-4.12 -0.58,-1.97 -2.4,-3.41 -4.56,-3.41 -2.41,0 -4.4,1.79 -4.71,4.12z"/>
   <path class="fil28" d="M152.52 40.18c-0.08,-0.09 -0.16,-0.19 -0.25,-0.27 -0.09,-0.23 -0.2,-0.44 -0.33,-0.65l0.02 -0.1 0.1 0.02c0.2,0.31 0.35,0.65 0.45,1.01z"/>
   <path class="fil29" d="M148.75 45.2c-0.21,0 -0.42,-0.02 -0.62,-0.05l-0.06 -0.09 0.09 -0.06c0.2,0.03 0.4,0.05 0.6,0.05 2.08,0 3.77,-1.69 3.77,-3.77 0,-0.47 -0.09,-0.93 -0.26,-1.37 0.09,0.09 0.17,0.18 0.25,0.27 0.1,0.35 0.16,0.72 0.16,1.09 0,2.16 -1.76,3.93 -3.93,3.93z"/>
   <path class="fil28" d="M144.86 40.76c0.14,-1.06 0.71,-2.03 1.59,-2.67l0.11 0.02 -0.02 0.11c-0.75,0.55 -1.27,1.35 -1.47,2.24 -0.07,0.1 -0.14,0.2 -0.21,0.31z"/>
   <path class="fil29" d="M145.89 43.92l-0.06 -0.02c-0.65,-0.72 -1.01,-1.66 -1.01,-2.63 0,-0.17 0.01,-0.35 0.03,-0.52 0.07,-0.11 0.14,-0.21 0.21,-0.31 -0.06,0.27 -0.09,0.54 -0.09,0.82 0,0.94 0.34,1.83 0.97,2.53l-0.01 0.11 -0.05 0.02z"/>
   <path class="fil29" d="M146.26 41.71l-0.08 -0.06c-0.02,-0.12 -0.03,-0.25 -0.03,-0.38 0,-1.43 1.16,-2.59 2.59,-2.59 0.13,0 0.26,0.01 0.38,0.03l0.06 0.09 -0.09 0.06c-0.12,-0.02 -0.24,-0.03 -0.36,-0.03 -1.34,0 -2.44,1.09 -2.44,2.44 0,0.12 0.01,0.24 0.03,0.35l-0.06 0.09 -0.01 0z"/>
   <path class="fil29" d="M148.75 43.86c-0.72,0 -1.42,-0.31 -1.91,-0.84l0 -0.11 0.11 0.01c0.46,0.5 1.12,0.79 1.8,0.79 0.67,0 1.32,-0.28 1.78,-0.78l0.11 -0 0 0.11c-0.49,0.52 -1.18,0.82 -1.89,0.82z"/>
   <path class="fil29" d="M151.26 41.54l-0 0 -0.07 -0.08 0.01 -0.19c0,-0.92 -0.51,-1.75 -1.33,-2.17l-0.03 -0.1 0.1 -0.03c0.87,0.44 1.42,1.33 1.42,2.31 0,0.07 -0,0.13 -0.01,0.2l-0.08 0.07z"/>
   <path class="fil29" d="M148.75 43.28l-0.08 -0.08 0.08 -0.08c0.66,0 1.25,-0.34 1.59,-0.9l0.1 -0.03 0.03 0.1c-0.37,0.61 -1.01,0.97 -1.72,0.97z"/>
   <path class="fil29" d="M147.08 40.38l-0.04 -0.01 -0.03 -0.1c0.36,-0.61 1.02,-1 1.74,-1 0.54,0 1.04,0.21 1.42,0.59l0 0.11 -0.11 0c-0.35,-0.35 -0.82,-0.54 -1.31,-0.54 -0.66,0 -1.27,0.35 -1.61,0.92l-0.07 0.04z"/>
   <path class="fil25" d="M178.57 131.75c0.45,-0.28 0.58,-0.87 0.29,-1.32l-2.09 -3.29 -1.62 1.03 2.09 3.29c0.28,0.45 0.87,0.58 1.32,0.29z"/>
   <path class="fil25" d="M179.61 123.64c0,3.25 -2.64,5.89 -5.89,5.89 -3.25,0 -5.89,-2.64 -5.89,-5.89 0,-3.25 2.64,-5.89 5.89,-5.89 3.25,0 5.89,2.64 5.89,5.89z"/>
   <path class="fil16" d="M168.29 122.66c0.07,-0.55 0.24,-1.09 0.47,-1.6 0.24,-0.51 0.57,-0.98 0.96,-1.39 0.79,-0.82 1.84,-1.39 2.96,-1.6 0.14,-0.02 0.28,-0.04 0.42,-0.06 0.14,-0.02 0.28,-0.02 0.43,-0.03 0.07,-0 0.14,-0.01 0.21,-0.01l0.21 0.01c0.14,0 0.28,0.02 0.43,0.04 0.57,0.07 1.12,0.23 1.63,0.48 0.51,0.24 0.99,0.56 1.4,0.95 0.4,0.39 0.76,0.84 1.02,1.33 -0.63,-0.92 -1.51,-1.64 -2.51,-2.06 -1,-0.43 -2.12,-0.54 -3.18,-0.35 -1.06,0.2 -2.06,0.72 -2.85,1.47 -0.78,0.76 -1.34,1.75 -1.6,2.83z"/>
   <path class="fil26" d="M178.48 123.64c0,2.63 -2.13,4.76 -4.76,4.76 -2.63,0 -4.76,-2.13 -4.76,-4.76 0,-2.63 2.13,-4.76 4.76,-4.76 2.63,0 4.76,2.13 4.76,4.76z"/>
   <path class="fil27" d="M169.16 124.99c0.58,1.97 2.4,3.41 4.56,3.41 2.41,0 4.4,-1.79 4.71,-4.12 -0.58,-1.97 -2.4,-3.41 -4.56,-3.41 -2.41,0 -4.4,1.79 -4.71,4.12z"/>
   <path class="fil28" d="M177.49 122.54c-0.08,-0.09 -0.16,-0.19 -0.25,-0.27 -0.09,-0.23 -0.2,-0.45 -0.33,-0.65l0.02 -0.1 0.1 0.02c0.2,0.31 0.35,0.65 0.45,1.01z"/>
   <path class="fil29" d="M173.72 127.56c-0.21,0 -0.42,-0.02 -0.62,-0.05l-0.06 -0.09 0.09 -0.06c0.2,0.03 0.4,0.05 0.6,0.05 2.08,0 3.77,-1.69 3.77,-3.77 0,-0.47 -0.09,-0.93 -0.26,-1.37 0.09,0.09 0.17,0.18 0.25,0.27 0.1,0.35 0.16,0.72 0.16,1.09 0,2.16 -1.76,3.92 -3.93,3.92z"/>
   <path class="fil28" d="M169.83 123.12c0.14,-1.06 0.71,-2.03 1.59,-2.67l0.11 0.02 -0.02 0.11c-0.75,0.54 -1.27,1.35 -1.47,2.24 -0.07,0.1 -0.14,0.2 -0.21,0.31z"/>
   <path class="fil29" d="M170.86 126.29l-0.06 -0.02c-0.65,-0.72 -1.01,-1.65 -1.01,-2.63 0,-0.17 0.01,-0.35 0.03,-0.52 0.07,-0.11 0.14,-0.21 0.21,-0.31 -0.06,0.27 -0.09,0.54 -0.09,0.82 0,0.93 0.35,1.83 0.97,2.53l-0.01 0.11 -0.05 0.02z"/>
   <path class="fil29" d="M171.23 124.08l-0.08 -0.06c-0.02,-0.12 -0.03,-0.25 -0.03,-0.37 0,-1.43 1.16,-2.59 2.59,-2.59 0.13,0 0.26,0.01 0.38,0.03l0.06 0.09 -0.09 0.06c-0.12,-0.02 -0.24,-0.03 -0.36,-0.03 -1.34,0 -2.44,1.09 -2.44,2.44 0,0.12 0.01,0.24 0.02,0.35l-0.06 0.09 -0.01 0z"/>
   <path class="fil29" d="M173.72 126.23c-0.72,0 -1.42,-0.31 -1.91,-0.84l0.01 -0.11 0.11 0.01c0.46,0.5 1.11,0.79 1.79,0.79 0.67,0 1.32,-0.28 1.78,-0.78l0.11 -0 0 0.11c-0.49,0.52 -1.18,0.82 -1.89,0.82z"/>
   <path class="fil29" d="M176.22 123.9l-0.01 0 -0.07 -0.08 0.01 -0.19c0,-0.92 -0.51,-1.75 -1.33,-2.17l-0.03 -0.1 0.1 -0.03c0.87,0.44 1.42,1.33 1.42,2.31 0,0.07 -0,0.13 -0.01,0.2l-0.07 0.07z"/>
   <path class="fil29" d="M173.72 125.65l-0.08 -0.08 0.08 -0.08c0.66,0 1.25,-0.34 1.59,-0.9l0.1 -0.03 0.03 0.1c-0.37,0.61 -1.01,0.97 -1.72,0.97z"/>
   <path class="fil29" d="M172.05 122.74l-0.04 -0.01 -0.03 -0.1c0.36,-0.61 1.02,-1 1.73,-1 0.54,0 1.04,0.21 1.42,0.59l0 0.11 -0.11 0c-0.35,-0.35 -0.82,-0.54 -1.31,-0.54 -0.66,0 -1.27,0.35 -1.6,0.92l-0.07 0.04z"/>
   <path class="fil14" d="M54.67 144.94c-0.13,-0.32 -0.92,-0.45 -1.69,-0.49 -2.93,-5.43 -10.33,-5.62 -10.33,-5.62 0,0 -0.59,2.32 2.57,6.18 3.16,3.85 3.14,11.48 3.14,11.48 0,0 1.66,-0.89 3.34,-2.74 1.4,-1.54 2.79,-3.82 2.2,-6.81 0.47,-0.77 0.93,-1.67 0.78,-2z"/>
   <path class="fil30" d="M126.05 149.97l-0.74 -2.67c-0.19,-0.68 -0.84,-1.11 -1.54,-1.02l-9.24 1.18c-0.83,0.11 -1.39,0.91 -1.19,1.73l0.69 2.88c0.17,0.71 0.86,1.17 1.58,1.06l9.3 -1.39c0.84,-0.12 1.38,-0.95 1.15,-1.77z"/>
   <path class="fil30" d="M142.83 139.37l2.16 1.73c0.55,0.44 1.33,0.41 1.84,-0.07l6.81 -6.37c0.61,-0.57 0.59,-1.55 -0.04,-2.1l-2.24 -1.93c-0.55,-0.48 -1.38,-0.45 -1.9,0.06l-6.72 6.57c-0.61,0.59 -0.56,1.58 0.1,2.11z"/>
  </g>
 </g>
</svg>
